<svg width="122" height="27" viewBox="0 0 122 27" fill="none" xmlns="http://www.w3.org/2000/svg">
<path d="M25.401 23.8362L22.6929 27L19.8134 24.3036C17.7567 25.8495 15.2886 26.6764 12.5119 26.6764C5.14189 26.6764 0 20.8162 0 13.7337V13.6618C0 6.61518 5.21045 0.647137 12.5805 0.647137C19.9505 0.647137 25.0924 6.50732 25.0924 13.5899V13.6618C25.0924 16.538 24.2012 19.1984 22.6586 21.3915L25.401 23.8362ZM12.5805 22.5779C14.1231 22.5779 15.4942 22.2184 16.694 21.4634L12.5805 17.7244L15.2886 14.4887L19.5049 18.5153C20.2933 17.1132 20.6704 15.4953 20.6704 13.7337V13.6618C20.6704 8.7723 17.311 4.74567 12.5119 4.74567C7.74712 4.74567 4.42203 8.7004 4.42203 13.5899V13.6618C4.42203 18.5513 7.7814 22.5779 12.5805 22.5779Z" fill="white"/>
<path d="M42.1487 9.53138C43.7887 11.3026 44.7347 13.6551 44.7995 16.1231C44.8642 18.591 44.043 20.9945 42.4985 22.8577C40.9539 24.7208 38.7985 25.9077 36.4592 26.1834C34.1199 26.459 31.7672 25.8033 29.8669 24.3462L31.5885 21.8766C32.8986 22.8812 34.5207 23.3333 36.1335 23.1432C37.7464 22.9532 39.2323 22.1349 40.2972 20.8503C41.3621 19.5658 41.9283 17.9087 41.8836 16.2072C41.839 14.5057 41.1867 12.8838 40.0561 11.6627L42.1487 9.53138ZM29.4581 8.774C31.2791 7.20937 33.5939 6.41894 35.9441 6.5592C37.1514 6.63125 38.3228 6.94618 39.3989 7.47548L38.1603 10.2453C37.4183 9.88029 36.6108 9.66318 35.7784 9.61351C34.1581 9.5168 32.5622 10.0618 31.3067 11.1405C30.0513 12.2192 29.2278 13.7531 28.9994 15.4383C28.771 17.1235 29.1543 18.8373 30.0733 20.2402L27.6692 21.9727C26.3361 19.9378 25.7802 17.4521 26.1115 15.0077C26.4428 12.5634 27.6372 10.3386 29.4581 8.774Z" fill="white"/>
<path d="M32.1303 12.0225C33.1177 11.159 34.3783 10.7158 35.6625 10.7808C36.9466 10.8457 38.1607 11.414 39.0643 12.3732C39.9679 13.3323 40.4952 14.6124 40.5417 15.9599C40.5882 17.3074 40.1506 18.624 39.3154 19.6492L38.1042 18.5639C38.68 17.8571 38.9818 16.9493 38.9497 16.0203C38.9176 15.0913 38.5541 14.2088 37.9311 13.5475C37.3081 12.8862 36.4711 12.4944 35.5857 12.4496C34.7004 12.4049 33.8313 12.7104 33.1506 13.3057L32.1303 12.0225ZM31.2129 19.2394C30.4757 18.1348 30.1609 16.78 30.3308 15.4435C30.418 14.7569 30.63 14.1009 30.9492 13.5081L32.3363 14.33C32.1161 14.7387 31.97 15.1909 31.9098 15.6643C31.7927 16.5857 32.0098 17.5198 32.518 18.2814C33.0263 19.043 33.7887 19.5767 34.6543 19.7767C35.5199 19.9768 36.4256 19.8287 37.192 19.3617L37.9922 20.8064C36.8806 21.4837 35.567 21.6985 34.3114 21.4084C33.0559 21.1182 31.9501 20.3441 31.2129 19.2394Z" fill="white"/>
<path d="M35.6585 13.6961C36.2466 13.7593 36.7906 14.0519 37.1828 14.5159C37.575 14.9798 37.7868 15.5813 37.7763 16.2012C37.7657 16.8212 37.5336 17.4144 37.1258 17.8633C36.7181 18.3123 36.1645 18.5843 35.5746 18.6255L35.5259 17.8589C35.9326 17.8305 36.3143 17.643 36.5954 17.3334C36.8765 17.0239 37.0365 16.6149 37.0438 16.1875C37.0511 15.7601 36.9051 15.3454 36.6347 15.0255C36.3643 14.7057 35.9892 14.504 35.5838 14.4604L35.6585 13.6961ZM33.0999 15.6981C33.2096 15.0889 33.5334 14.545 34.0073 14.1742C34.2507 13.9838 34.5245 13.8461 34.813 13.7658L35.0009 14.5085C34.8019 14.5638 34.6131 14.6587 34.4453 14.79C34.1186 15.0456 33.8954 15.4206 33.8198 15.8407C33.7442 16.2607 33.8217 16.6952 34.037 17.0582C34.2524 17.4211 34.5898 17.686 34.9826 17.8005L34.7865 18.5407C34.2169 18.3748 33.7274 17.9905 33.4151 17.4641C33.1027 16.9377 32.9903 16.3074 33.0999 15.6981Z" fill="white"/>
<path d="M45.8657 26.245V7.26232H50.0478V11.5406C51.179 8.66445 53.27 6.75899 56.458 6.9028V11.5047H56.218C52.5502 11.5047 50.0478 13.9854 50.0478 19.0186V26.245H45.8657Z" fill="white"/>
<path d="M57.4864 4.3502V0.215712H61.9427V4.3502H57.4864ZM57.6235 26.245V7.26232H61.8056V26.245H57.6235Z" fill="white"/>
<path d="M71.3352 26.6405C67.0846 26.6405 62.9368 23.1172 62.9368 16.7896V16.7177C62.9368 10.3901 67.016 6.86684 71.3352 6.86684C74.2832 6.86684 76.2371 8.41278 77.5055 10.2104V0H81.6533V26.245H77.5055V23.0812C76.1686 25.0586 74.2489 26.6405 71.3352 26.6405ZM72.3293 22.8655C75.1059 22.8655 77.574 20.4208 77.574 16.7896V16.7177C77.574 13.0506 75.1059 10.6418 72.3293 10.6418C69.4841 10.6418 67.1189 12.9787 67.1189 16.7177V16.7896C67.1189 20.4567 69.4841 22.8655 72.3293 22.8655Z" fill="white"/>
<path d="M82.6474 4.3502V0.215712H87.1037V4.3502H82.6474ZM82.7845 26.245V7.26232H86.9666V26.245H82.7845Z" fill="white"/>
<path d="M94.508 26.6405C91.1144 26.6405 88.0635 24.6272 88.0635 20.7803V20.7084C88.0635 16.5739 91.1486 14.5965 95.5707 14.5965C97.6274 14.5965 99.0329 14.9201 100.438 15.3875V14.9201C100.438 12.1877 98.8615 10.7856 95.9477 10.7856C93.891 10.7856 92.417 11.253 90.7716 11.972L89.6403 8.55659C91.6628 7.65779 93.6167 7.01065 96.4962 7.01065C99.2043 7.01065 101.192 7.72969 102.495 9.13183C103.832 10.534 104.449 12.5113 104.449 14.992V26.245H100.404V23.8722C99.17 25.4181 97.2846 26.6405 94.508 26.6405ZM95.6735 23.4767C98.4158 23.4767 100.507 21.8589 100.507 19.4141V18.1198C99.4442 17.6884 98.0388 17.3648 96.3934 17.3648C93.6853 17.3648 92.1427 18.5153 92.1427 20.5286V20.6005C92.1427 22.4341 93.651 23.4767 95.6735 23.4767Z" fill="white"/>
<path d="M105.717 26.245V7.26232H109.899V10.1744C111.099 8.41278 112.71 6.86684 115.555 6.86684C119.669 6.86684 122 9.70706 122 14.1292V26.245H117.852V15.4594C117.852 12.4754 116.447 10.8216 113.979 10.8216C111.545 10.8216 109.899 12.5473 109.899 15.5313V26.245H105.717Z" fill="white"/>
</svg>
