<svg width="34" height="35" viewBox="0 0 34 35" fill="none" xmlns="http://www.w3.org/2000/svg">
<path d="M9.6 0H4.8V4.87742H9.6V0Z" fill="#4DB83F"/>
<path d="M14.4 0H9.6V4.87742H14.4V0Z" fill="#4DB83F"/>
<path d="M19.2 0H14.4V4.87742H19.2V0Z" fill="#4DB83F"/>
<path d="M24 0H19.2V4.87742H24V0Z" fill="#4DB83F"/>
<path d="M28.8 0H24V4.87742H28.8V0Z" fill="#4DB83F"/>
<path d="M4.8 4.87742H0V9.75484H4.8V4.87742Z" fill="#4DB83F"/>
<path d="M9.6 4.87742H4.8V9.75484H9.6V4.87742Z" fill="#4DB83F"/>
<path d="M14.4 4.87742H9.6V9.75484H14.4V4.87742Z" fill="#4DB83F"/>
<path d="M19.2 4.87742H14.4V9.75484H19.2V4.87742Z" fill="#4DB83F"/>
<path d="M24 4.87742H19.2V9.75484H24V4.87742Z" fill="#4DB83F"/>
<path d="M28.8 4.87742H24V9.75484H28.8V4.87742Z" fill="#4DB83F"/>
<path d="M33.6 4.87742H28.8V9.75484H33.6V4.87742Z" fill="#4DB83F"/>
<path d="M4.8 9.75484H0V14.6323H4.8V9.75484Z" fill="#4DB83F"/>
<path d="M9.6 9.75484H4.8V14.6323H9.6V9.75484Z" fill="#4DB83F"/>
<path d="M14.4 9.75484H9.6V14.6323H14.4V9.75484Z" fill="#4DB83F"/>
<path d="M19.2 9.75484H14.4V14.6323H19.2V9.75484Z" fill="#4DB83F"/>
<path d="M24 9.75484H19.2V14.6323H24V9.75484Z" fill="#4DB83F"/>
<path d="M28.8 9.75484H24V14.6323H28.8V9.75484Z" fill="#4DB83F"/>
<path d="M33.6 9.75484H28.8V14.6323H33.6V9.75484Z" fill="#4DB83F"/>
<path d="M4.8 14.6323H0V19.5097H4.8V14.6323Z" fill="#4DB83F"/>
<path d="M9.6 14.6323H4.8V19.5097H9.6V14.6323Z" fill="#4DB83F"/>
<path d="M14.4 14.6323H9.6V19.5097H14.4V14.6323Z" fill="#4DB83F"/>
<path d="M19.2 14.6323H14.4V19.5097H19.2V14.6323Z" fill="#4DB83F"/>
<path d="M24 14.6323H19.2V19.5097H24V14.6323Z" fill="#4DB83F"/>
<path d="M28.8 14.6323H24V19.5097H28.8V14.6323Z" fill="#4DB83F"/>
<path d="M33.6 14.6323H28.8V19.5097H33.6V14.6323Z" fill="#4DB83F"/>
<path d="M9.6 19.5097H4.8V24.3871H9.6V19.5097Z" fill="#4DB83F"/>
<path d="M14.4 19.5097H9.6V24.3871H14.4V19.5097Z" fill="#4DB83F"/>
<path d="M19.2 19.5097H14.4V24.3871H19.2V19.5097Z" fill="#4DB83F"/>
<path d="M24 19.5097H19.2V24.3871H24V19.5097Z" fill="#4DB83F"/>
<path d="M28.8 19.5097H24V24.3871H28.8V19.5097Z" fill="#4DB83F"/>
<path d="M14.4 24.3871H9.6V29.2645H14.4V24.3871Z" fill="#4DB83F"/>
<path d="M19.2 24.3871H14.4V29.2645H19.2V24.3871Z" fill="#4DB83F"/>
<path d="M24 24.3871H19.2V29.2645H24V24.3871Z" fill="#4DB83F"/>
<path d="M19.2 29.2645H14.4L14.4 34.1419H19.2V29.2645Z" fill="#4DB83F"/>
<path d="M14.4 4.87742H9.6V9.75484H14.4V4.87742Z" fill="#2F7D32"/>
<path d="M24 4.87742H19.2V9.75484H24V4.87742Z" fill="#2F7D32"/>
<path d="M9.6 9.75484H4.8V14.6323H9.6V9.75484Z" fill="#2F7D32"/>
<path d="M28.8 9.75484H24V14.6323H28.8V9.75484Z" fill="#2F7D32"/>
<path d="M14.4 14.6323H9.6V19.5097H14.4V14.6323Z" fill="#2F7D32"/>
<path d="M24 14.6323H19.2V19.5097H24V14.6323Z" fill="#2F7D32"/>
<path d="M19.2 19.5097H14.4V24.3871H19.2V19.5097Z" fill="#2F7D32"/>
<path d="M19.2 24.3871H14.4V29.2645H19.2V24.3871Z" fill="#2F7D32"/>
<path d="M19.2 9.75484H14.4V14.6323H19.2V9.75484Z" fill="#DFF1DA"/>
<path d="M19.2 14.6323H14.4V19.5097H19.2V14.6323Z" fill="#DFF1DA"/>
<path d="M17.7429 11.4097H15.8571V13.3258H17.7429V11.4097Z" fill="#2F7D32"/>
<path d="M18.2571 16.4613H15.3429V17.5065H18.2571V16.4613Z" fill="#2F7D32"/>
</svg>
