<svg width="640" height="640" viewBox="0 0 640 640" fill="none" xmlns="http://www.w3.org/2000/svg">
<path d="M549.799 532.079L553.373 535.378H553.374L553.035 535.745L554.452 537.054C554.008 537.534 553.563 538.014 553.116 538.491L553.479 538.831C552.356 540.03 551.225 541.221 550.084 542.401L549.725 542.054C548.583 543.234 547.434 544.406 546.276 545.567L546.63 545.919C545.469 547.083 544.301 548.237 543.124 549.382L542.776 549.025C541.6 550.17 540.416 551.304 539.224 552.429L539.566 552.792C538.37 553.92 537.164 555.037 535.952 556.146L535.616 555.778C534.405 556.886 533.187 557.984 531.96 559.071L532.291 559.444C531.061 560.535 529.823 561.614 528.578 562.685L528.254 562.307C527.009 563.377 525.756 564.437 524.496 565.486L524.815 565.868C523.553 566.92 522.283 567.963 521.005 568.994L520.691 568.606C519.415 569.637 518.13 570.657 516.839 571.667L517.146 572.06C515.852 573.072 514.55 574.075 513.24 575.066L512.939 574.669C511.632 575.66 510.316 576.64 508.994 577.61L509.289 578.013C507.964 578.985 506.632 579.946 505.293 580.896L505.005 580.49C503.667 581.44 502.321 582.38 500.97 583.309L501.252 583.72C499.898 584.651 498.537 585.571 497.169 586.48L496.894 586.064C495.527 586.973 494.154 587.87 492.774 588.757L493.044 589.177C491.662 590.065 490.273 590.943 488.878 591.81L488.614 591.387C487.221 592.252 485.821 593.107 484.415 593.951L484.671 594.378C483.262 595.223 481.847 596.058 480.426 596.882L480.177 596.45C478.757 597.273 477.331 598.084 475.899 598.885L476.143 599.319C474.709 600.121 473.268 600.911 471.822 601.69L471.586 601.252C470.142 602.03 468.692 602.798 467.236 603.554L467.466 603.996C466.008 604.753 464.544 605.498 463.074 606.232L462.852 605.787C461.384 606.52 459.911 607.242 458.433 607.953L458.648 608.402C457.168 609.114 455.683 609.816 454.191 610.505L453.981 610.051C452.492 610.739 450.998 611.415 449.498 612.08L449.7 612.535C448.198 613.201 446.691 613.856 445.179 614.499L444.984 614.04C443.475 614.682 441.96 615.312 440.44 615.931L440.628 616.393C439.107 617.012 437.581 617.619 436.05 618.215L435.869 617.75C434.341 618.345 432.807 618.928 431.27 619.499L431.442 619.967C429.903 620.539 428.358 621.099 426.81 621.647L426.644 621.178C425.098 621.725 423.547 622.26 421.992 622.784L422.151 623.257C420.595 623.781 419.034 624.293 417.469 624.794L417.317 624.319C415.755 624.819 414.189 625.307 412.618 625.782L412.762 626.259C411.19 626.735 409.615 627.199 408.035 627.651L407.898 627.172C406.322 627.623 404.741 628.062 403.157 628.489L403.286 628.97C401.7 629.397 400.11 629.813 398.517 630.217L398.396 629.733C396.806 630.136 395.213 630.526 393.616 630.904L393.73 631.39C392.133 631.768 390.531 632.133 388.926 632.487L388.819 632.001C387.218 632.354 385.613 632.695 384.005 633.023L384.104 633.513C382.495 633.842 380.883 634.158 379.269 634.462L379.177 633.972C377.566 634.275 375.952 634.567 374.335 634.846L374.419 635.337C372.8 635.616 371.178 635.884 369.554 636.139L369.478 635.646C367.858 635.899 366.236 636.141 364.611 636.37L364.681 636.863C363.055 637.092 361.426 637.309 359.795 637.514L359.734 637.02C358.107 637.223 356.477 637.415 354.845 637.594L354.898 638.09C353.267 638.269 351.633 638.435 349.997 638.589L349.951 638.093L347.499 638.313C346.681 638.384 345.863 638.452 345.045 638.517L345.083 639.014C343.444 639.143 341.806 639.259 340.168 639.362L340.138 638.864C338.499 638.968 336.861 639.059 335.223 639.137L335.246 639.635C333.604 639.713 331.962 639.778 330.321 639.831L330.306 639.333C328.666 639.386 327.026 639.426 325.388 639.454L325.396 639.953C323.751 639.981 322.108 639.996 320.466 639.998V639.5C318.825 639.502 317.184 639.492 315.545 639.469L315.538 639.968C313.895 639.945 312.253 639.909 310.612 639.861L310.627 639.362C308.986 639.314 307.346 639.254 305.708 639.181L305.686 639.678C304.044 639.604 302.403 639.52 300.764 639.421L300.794 638.923C299.156 638.824 297.519 638.713 295.885 638.589L295.848 639.087C294.209 638.963 292.571 638.825 290.936 638.676L290.98 638.18C289.347 638.031 287.714 637.869 286.084 637.695L286.03 638.19C284.397 638.016 282.765 637.829 281.135 637.63L281.195 637.135C279.567 636.935 277.94 636.723 276.315 636.499L276.247 636.993C274.619 636.768 272.993 636.532 271.37 636.282L271.446 635.789C269.825 635.54 268.205 635.278 266.589 635.004L266.505 635.496C264.884 635.221 263.267 634.932 261.651 634.633L261.743 634.144C260.13 633.844 258.519 633.533 256.911 633.209L256.812 633.697C255.202 633.373 253.594 633.037 251.989 632.688L252.096 632.2C250.493 631.851 248.892 631.49 247.295 631.117L247.182 631.603C245.582 631.229 243.985 630.842 242.391 630.443L242.512 629.96C240.92 629.562 239.332 629.153 237.747 628.73L237.618 629.213C236.031 628.79 234.447 628.354 232.866 627.906L233.002 627.427C231.424 626.98 229.849 626.522 228.277 626.051L228.134 626.527C226.56 626.056 224.989 625.574 223.423 625.078H223.424L223.575 624.602C222.012 624.107 220.452 623.599 218.896 623.08L218.737 623.554C217.179 623.034 215.625 622.502 214.074 621.958L214.239 621.487C212.692 620.944 211.148 620.389 209.608 619.822L209.436 620.291C207.894 619.723 206.357 619.143 204.824 618.552L205.004 618.087C203.474 617.497 201.948 616.894 200.427 616.28L200.239 616.742C198.716 616.127 197.197 615.502 195.683 614.863L195.877 614.403C194.366 613.766 192.86 613.117 191.358 612.457L191.157 612.914C189.654 612.253 188.155 611.579 186.661 610.895L186.869 610.441C185.378 609.758 183.892 609.063 182.411 608.356L182.196 608.807C180.714 608.099 179.237 607.381 177.765 606.65L177.987 606.204C176.518 605.475 175.054 604.734 173.596 603.982L173.367 604.426C171.907 603.673 170.452 602.909 169.003 602.134L169.239 601.693C167.794 600.92 166.353 600.135 164.919 599.339L164.676 599.774C163.24 598.977 161.81 598.168 160.386 597.349L160.636 596.917C159.215 596.099 157.798 595.27 156.389 594.43L156.133 594.857C154.723 594.017 153.318 593.165 151.92 592.302L152.183 591.877C150.788 591.016 149.398 590.144 148.015 589.261L147.746 589.68C146.362 588.796 144.983 587.901 143.611 586.995L143.888 586.579C142.52 585.676 141.159 584.76 139.804 583.835L139.521 584.247C138.166 583.321 136.817 582.383 135.475 581.436L135.762 581.028C134.422 580.083 133.089 579.126 131.763 578.159L131.468 578.562C130.142 577.595 128.822 576.618 127.509 575.629L127.81 575.23C127.154 574.737 126.501 574.24 125.849 573.741L123.898 572.237L123.593 572.631C122.295 571.622 121.005 570.605 119.725 569.578L120.038 569.188C118.757 568.161 117.486 567.124 116.223 566.078L115.904 566.462C114.638 565.413 113.381 564.356 112.133 563.289L112.457 562.91C111.21 561.844 109.971 560.77 108.741 559.687L108.411 560.061C107.177 558.973 105.954 557.876 104.738 556.771L105.073 556.403C103.859 555.299 102.654 554.187 101.458 553.065L101.116 553.429C99.9174 552.305 98.7281 551.172 97.5479 550.03L97.8955 549.672C96.7156 548.531 95.5449 547.382 94.3838 546.224L94.0303 546.576C92.8665 545.416 91.7121 544.247 90.5674 543.069L90.9258 542.722C89.7821 541.545 88.6479 540.361 87.5234 539.168L87.1592 539.51C86.0315 538.314 84.9139 537.109 83.8057 535.896L84.1748 535.561C83.0678 534.349 81.9703 533.13 80.8828 531.903L80.5088 532.233C79.4191 531.004 78.3394 529.766 77.2695 528.521L77.6484 528.195C76.5791 526.951 75.5192 525.698 74.4697 524.438L74.0869 524.757C73.0352 523.494 71.9935 522.223 70.9619 520.944L71.3506 520.632C70.3204 519.355 69.3 518.07 68.29 516.778L67.8965 517.085C66.8844 515.79 65.8823 514.488 64.8906 513.179L65.2891 512.878C64.2987 511.57 63.3184 510.254 62.3486 508.932L61.9463 509.227C60.9747 507.901 60.0123 506.57 59.0615 505.23L59.4697 504.941C58.5201 503.604 57.5811 502.258 56.6523 500.906L56.2402 501.188C55.31 499.834 54.3906 498.473 53.4814 497.104L53.8975 496.829C52.9896 495.463 52.0917 494.09 51.2051 492.71L50.7842 492.979C49.8962 491.597 49.0199 490.208 48.1533 488.812L48.5771 488.549C47.7119 487.155 46.8574 485.755 46.0137 484.349L45.585 484.605C44.7398 483.197 43.9054 481.781 43.082 480.359L43.5146 480.109C42.6927 478.69 41.8812 477.264 41.0811 475.832L40.6455 476.075C39.8442 474.641 39.0537 473.201 38.2744 471.754L38.7139 471.518C37.9361 470.074 37.1696 468.624 36.4141 467.168L35.9697 467.396C35.2132 465.939 34.4686 464.475 33.7344 463.005L34.1807 462.782C33.4477 461.315 32.7261 459.842 32.0156 458.363L31.5654 458.579C30.8539 457.098 30.1527 455.612 29.4639 454.12L29.918 453.911C29.2307 452.422 28.5542 450.928 27.8896 449.428L27.4336 449.63C26.7682 448.128 26.1142 446.621 25.4717 445.108L25.9316 444.914C25.2904 443.405 24.6603 441.889 24.042 440.369L23.5791 440.557C22.9604 439.035 22.3534 437.509 21.7578 435.978L22.2236 435.798C21.6293 434.27 21.0457 432.736 20.4746 431.197L20.0068 431.371C19.4351 429.831 18.8745 428.286 18.3262 426.736L18.7979 426.57C18.2511 425.025 17.7157 423.475 17.1924 421.92L16.7188 422.078C16.1949 420.522 15.6828 418.961 15.1826 417.396L15.6582 417.244C15.1591 415.682 14.6717 414.115 14.1963 412.544L13.7178 412.688C13.2422 411.116 12.7789 409.54 12.3271 407.96L12.8076 407.824C12.357 406.248 11.9179 404.667 11.4912 403.082L11.0098 403.211C10.5827 401.625 10.1667 400.035 9.76367 398.441L10.248 398.319C9.84637 396.731 9.45672 395.138 9.0791 393.541L8.59277 393.655C8.21486 392.057 7.8498 390.455 7.49609 388.85L7.9834 388.743C7.63064 387.142 7.29041 385.536 6.96191 383.928L6.47168 384.027C6.14332 382.419 5.82744 380.808 5.52344 379.192L6.01465 379.101C5.86289 378.294 5.71402 377.487 5.56836 376.679C5.42273 375.871 5.27993 375.062 5.14062 374.254L4.64844 374.338C4.36937 372.718 4.10239 371.098 3.84863 369.477L4.34277 369.4C4.08888 367.778 3.84772 366.155 3.61914 364.531L3.12402 364.6C2.89487 362.972 2.67939 361.343 2.47559 359.714L2.9707 359.653C2.76701 358.025 2.57585 356.396 2.39746 354.767L1.90137 354.82C1.72242 353.186 1.55592 351.551 1.40234 349.916L1.89941 349.87C1.74595 348.236 1.60568 346.602 1.47754 344.968L0.979492 345.006C0.851021 343.367 0.734945 341.729 0.631836 340.09L1.13086 340.06C1.02779 338.421 0.937122 336.783 0.859375 335.146L0.361328 335.168C0.283402 333.526 0.216636 331.885 0.164062 330.243L0.664062 330.229C0.611529 328.589 0.571188 326.949 0.543945 325.31L0.0439453 325.317C0.0166364 323.674 0.00296038 322.031 0.000976562 320.389H0.5C0.498017 318.748 0.508949 317.107 0.532227 315.468L0.0332031 315.461C0.0489071 314.355 0.0695166 313.249 0.0966797 312.144L0.140625 310.533L0.639648 310.549C0.688217 308.909 0.749451 307.268 0.823242 305.63L0.325195 305.607C0.399121 303.966 0.484841 302.326 0.583984 300.687L1.08301 300.717C1.18205 299.079 1.29378 297.443 1.41797 295.808L0.918945 295.77C1.04342 294.131 1.18141 292.493 1.33105 290.857L1.82812 290.903C1.97756 289.27 2.13993 287.637 2.31445 286.006L1.81738 285.953C1.99223 284.319 2.17897 282.687 2.37891 281.057L2.875 281.118C3.07467 279.49 3.28706 277.863 3.51172 276.238L3.01758 276.17C3.24264 274.542 3.47943 272.917 3.72949 271.293L4.22363 271.369C4.4733 269.748 4.7352 268.129 5.00977 266.512L4.5166 266.428C4.72405 265.206 4.93854 263.986 5.16016 262.767L5.37988 261.575L5.87109 261.666C6.17057 260.053 6.48237 258.443 6.80664 256.835L6.31738 256.736C6.64219 255.126 6.97854 253.518 7.32812 251.912L7.81641 252.019C8.16537 250.416 8.52675 248.816 8.90039 247.219L8.41504 247.105C8.78928 245.506 9.17532 243.909 9.57422 242.314L10.0586 242.437C10.4567 240.845 10.8673 239.257 11.29 237.672L10.8066 237.543C11.2299 235.956 11.6665 234.372 12.1143 232.791L12.5938 232.927C13.0406 231.349 13.5004 229.774 13.9717 228.203L13.4941 228.06C13.9662 226.486 14.4479 224.915 14.9443 223.348L14.9453 223.349L15.4219 223.5C15.9171 221.937 16.4248 220.376 16.9443 218.82L16.4697 218.662C16.9898 217.104 17.5231 215.55 18.0674 214L18.5381 214.165C19.0813 212.618 19.6368 211.074 20.2041 209.534L19.7354 209.361C20.303 207.821 20.8829 206.284 21.4746 204.751L21.9404 204.931C22.531 203.401 23.1336 201.875 23.748 200.354L23.2842 200.167C23.8993 198.644 24.527 197.125 25.166 195.61L25.626 195.805C26.2632 194.294 26.9123 192.788 27.5732 191.286L27.1162 191.085C27.7777 189.582 28.4515 188.084 29.1367 186.59L29.5908 186.798C30.2745 185.307 30.9695 183.821 31.6768 182.34L31.2256 182.125C31.933 180.643 32.6519 179.166 33.3828 177.694L33.8311 177.917C34.5601 176.449 35.3013 174.985 36.0537 173.526L35.6104 173.297C36.3348 171.893 37.0694 170.493 37.8154 169.098L37.9033 168.934L38.3438 169.169C39.1174 167.724 39.9025 166.285 40.6992 164.851L40.2637 164.607C41.0608 163.172 41.8693 161.743 42.6895 160.318L43.1221 160.567C43.9404 159.146 44.7701 157.73 45.6113 156.32L45.1826 156.064L45.1816 156.063C46.0224 154.654 46.8757 153.251 47.7393 151.853L48.1641 152.115C48.5075 151.559 48.8532 151.004 49.2002 150.45L50.8359 151.477L51.1016 151.053L55.2197 153.64V153.641L54.9531 154.064L59.0713 156.651L59.3369 156.228L63.4551 158.814L63.1895 159.238L67.3076 161.826L67.5732 161.402V161.401L71.6904 163.989L71.4248 164.413L75.543 167L75.8086 166.576L79.9268 169.163V169.164L79.6611 169.588L83.7793 172.175L84.0449 171.752V171.751L88.1621 174.339H88.1631L87.8965 174.762L92.0146 177.35L92.2803 176.926V176.925L96.3984 179.513L96.1328 179.937L100.25 182.524L100.516 182.101L104.634 184.687V184.688L104.368 185.111L106.005 186.14C105.659 186.693 105.314 187.246 104.973 187.802L105.398 188.064C104.542 189.457 103.701 190.857 102.873 192.264L102.441 192.01C101.611 193.422 100.795 194.84 99.9932 196.266L100.429 196.511H100.43C99.6281 197.936 98.8408 199.367 98.0684 200.806L97.6279 200.569C96.8528 202.013 96.0916 203.462 95.3457 204.918L95.79 205.146C95.0445 206.601 94.3147 208.063 93.5986 209.53L93.1494 209.311C92.4311 210.783 91.7277 212.261 91.0391 213.745L91.4922 213.955C90.804 215.438 90.1311 216.927 89.4727 218.421L89.0156 218.219C88.3553 219.717 87.7095 221.222 87.0791 222.731L87.54 222.924H87.541C86.9112 224.432 86.2951 225.945 85.6953 227.464L85.2305 227.281C84.6289 228.804 84.043 230.333 83.4717 231.866L83.9395 232.041H83.9404C83.3699 233.572 82.8147 235.108 82.2744 236.649H82.2734L81.8018 236.484C81.26 238.03 80.7329 239.579 80.2217 241.134L80.6973 241.29C80.1866 242.843 79.691 244.4 79.2109 245.961L78.7334 245.813C78.2522 247.378 77.7864 248.948 77.3359 250.521L77.8164 250.659C77.3667 252.23 76.9326 253.805 76.5137 255.384L76.0303 255.255C75.6104 256.837 75.2063 258.424 74.8174 260.014L75.3027 260.133C74.9145 261.72 74.5418 263.31 74.1846 264.904L73.6963 264.795C73.3383 266.392 72.9958 267.993 72.6689 269.597L73.1592 269.697C72.833 271.298 72.5226 272.902 72.2275 274.509L71.7354 274.418C71.4398 276.028 71.1598 277.641 70.8955 279.257L71.3887 279.337H71.3896C71.1259 280.949 70.8779 282.564 70.6455 284.182H70.6445L70.1504 284.11C69.9177 285.73 69.7003 287.353 69.499 288.978L69.9951 289.039C69.7943 290.66 69.6097 292.283 69.4404 293.908L68.9424 293.856C68.7728 295.484 68.6193 297.115 68.4814 298.746L68.9795 298.788H68.9805C68.8429 300.415 68.7192 302.044 68.6133 303.674L68.1152 303.643C68.0092 305.276 67.9191 306.91 67.8447 308.546L68.3447 308.568C68.2706 310.2 68.2123 311.833 68.1699 313.467L67.6699 313.454C67.6275 315.09 67.6005 316.727 67.5898 318.364L68.0898 318.367H68.0908C68.0802 320 68.0853 321.633 68.1064 323.268L68.1055 323.269L67.6055 323.274C67.6267 324.91 67.6647 326.547 67.7178 328.184L68.2168 328.167C68.2697 329.799 68.3391 331.431 68.4238 333.063V333.064L67.9238 333.09C68.0087 334.724 68.1098 336.358 68.2266 337.991L68.7256 337.956V337.955C68.842 339.583 68.9738 341.212 69.1221 342.84V342.841L68.624 342.887C68.7724 344.516 68.9369 346.144 69.1172 347.772L69.6143 347.718L69.6152 347.717C69.7949 349.339 69.9897 350.961 70.2012 352.582V352.583L69.7051 352.648C69.9166 354.27 70.1443 355.891 70.3877 357.511L70.8818 357.436C71.1244 359.05 71.3838 360.663 71.6582 362.274L71.6572 362.275L71.165 362.359C71.3024 363.166 71.4435 363.973 71.5889 364.779C71.7342 365.586 71.8831 366.391 72.0361 367.195L72.5273 367.102L72.5283 367.101C72.8338 368.706 73.1542 370.307 73.4902 371.903V371.906L73.001 372.01C73.3385 373.613 73.6916 375.211 74.0596 376.805L74.5469 376.692V376.691C74.9147 378.284 75.2982 379.872 75.6963 381.455V381.456L75.2109 381.578C75.6105 383.167 76.0253 384.751 76.4551 386.329L76.9375 386.197C77.367 387.775 77.812 389.347 78.2715 390.913V390.914L77.792 391.055C78.253 392.626 78.7288 394.193 79.2197 395.754L79.6973 395.604V395.603C80.1878 397.162 80.6917 398.716 81.2119 400.264H81.2129L80.7393 400.423C81.261 401.975 81.7973 403.522 82.3486 405.062L82.8193 404.894L82.8203 404.893C83.3711 406.431 83.9355 407.965 84.5156 409.491L84.0488 409.67C84.6306 411.201 85.227 412.725 85.8379 414.243L86.3018 414.057V414.056C86.9119 415.572 87.5367 417.081 88.1758 418.584V418.585L87.7158 418.781C88.3566 420.288 89.0111 421.788 89.6807 423.281L90.1367 423.076C90.8053 424.567 91.4894 426.051 92.1865 427.527V427.528L91.7344 427.742C92.4332 429.223 93.1459 430.696 93.873 432.162L94.3213 431.94V431.939C95.0474 433.403 95.7878 434.86 96.542 436.309L96.541 436.31L96.0977 436.54C96.8536 437.992 97.6234 439.437 98.4072 440.874L98.8467 440.635V440.634C99.6291 442.068 100.424 443.495 101.234 444.914L100.801 445.162C101.612 446.584 102.438 447.997 103.277 449.402L103.706 449.146L103.707 449.146C104.545 450.548 105.395 451.943 106.26 453.329L105.836 453.595C106.702 454.983 107.582 456.364 108.475 457.735L108.894 457.462C109.785 458.831 110.69 460.191 111.608 461.543V461.544L111.194 461.824C112.114 463.178 113.047 464.524 113.993 465.86L114.401 465.571V465.57C115.345 466.903 116.302 468.227 117.271 469.542V469.543L116.869 469.84C117.841 471.157 118.825 472.465 119.822 473.764L120.219 473.459L120.22 473.458C121.215 474.753 122.221 476.04 123.241 477.316L122.852 477.629C123.873 478.907 124.908 480.176 125.955 481.435L126.34 481.114V481.113C127.384 482.369 128.441 483.615 129.511 484.851V484.852L129.133 485.179C130.204 486.416 131.286 487.644 132.382 488.861L132.754 488.527V488.526C133.846 489.74 134.951 490.943 136.067 492.137L135.702 492.479C136.82 493.674 137.951 494.858 139.093 496.032L139.451 495.684V495.683C140.59 496.853 141.74 498.012 142.902 499.161V499.162L142.551 499.518C143.714 500.668 144.89 501.807 146.077 502.936L146.421 502.573V502.572C147.604 503.697 148.799 504.812 150.006 505.915L149.669 506.285C150.876 507.389 152.095 508.482 153.325 509.563L153.655 509.188C154.881 510.265 156.12 511.331 157.368 512.387L157.367 512.389L157.045 512.771C158.294 513.826 159.554 514.87 160.825 515.903L161.141 515.515C162.407 516.544 163.685 517.561 164.974 518.567V518.568L164.666 518.963C165.311 519.467 165.96 519.967 166.61 520.465C167.261 520.963 167.914 521.457 168.569 521.948L168.869 521.549V521.548C170.177 522.529 171.493 523.497 172.817 524.45L172.526 524.856C173.856 525.813 175.194 526.757 176.539 527.687L176.823 527.275V527.274C178.168 528.203 179.521 529.118 180.882 530.02V530.021L180.606 530.438C181.972 531.343 183.346 532.234 184.727 533.11L184.995 532.688V532.688C186.375 533.564 187.763 534.425 189.158 535.273V535.274L188.898 535.702C190.298 536.553 191.706 537.39 193.12 538.212L193.371 537.779V537.778C194.784 538.6 196.205 539.407 197.632 540.2V540.201L197.389 540.639C198.82 541.434 200.259 542.216 201.704 542.982L201.938 542.54V542.539C203.382 543.305 204.833 544.057 206.29 544.794V544.795L206.064 545.241C207.526 545.98 208.994 546.705 210.468 547.415L210.685 546.965V546.963C212.157 547.672 213.636 548.367 215.121 549.047V549.048L214.913 549.503C216.402 550.185 217.898 550.852 219.398 551.504L219.597 551.045C221.096 551.696 222.601 552.331 224.111 552.953V552.954L223.921 553.417C225.435 554.04 226.954 554.648 228.479 555.241L228.661 554.775V554.774C230.184 555.367 231.712 555.944 233.246 556.507V556.508L233.073 556.978C234.61 557.541 236.153 558.089 237.7 558.623L237.863 558.15V558.149C239.408 558.682 240.957 559.2 242.512 559.702V559.703L242.358 560.18C243.916 560.683 245.479 561.171 247.046 561.645L247.19 561.166V561.164C248.754 561.636 250.323 562.094 251.896 562.535V562.536L251.761 563.018C253.337 563.46 254.917 563.888 256.501 564.3L256.627 563.815V563.814C258.208 564.225 259.793 564.621 261.382 565.001V565.002L261.266 565.488C262.857 565.869 264.453 566.235 266.053 566.585L266.159 566.097V566.095C267.755 566.444 269.354 566.778 270.957 567.096V567.098L270.86 567.588C272.465 567.906 274.074 568.21 275.686 568.497L275.773 568.005V568.003C277.381 568.29 278.992 568.562 280.606 568.817L280.528 569.312C282.145 569.568 283.764 569.809 285.386 570.033L285.455 569.538V569.536C287.073 569.76 288.693 569.969 290.316 570.162V570.163L290.257 570.659C291.882 570.852 293.51 571.029 295.14 571.19L295.188 570.692C296.814 570.853 298.441 570.998 300.07 571.127V571.128L300.03 571.627C301.661 571.756 303.295 571.87 304.93 571.968L304.959 571.468C306.589 571.565 308.22 571.646 309.854 571.712V571.714L309.834 572.213C311.469 572.279 313.105 572.329 314.742 572.363L314.753 571.863V571.862C316.385 571.896 318.019 571.915 319.654 571.917V571.918L319.653 572.418C321.289 572.42 322.926 572.406 324.564 572.376L324.556 571.876L324.555 571.875C326.187 571.845 327.82 571.8 329.453 571.738L329.454 571.74L329.474 572.239C331.108 572.178 332.743 572.101 334.378 572.008L334.349 571.508C335.978 571.415 337.608 571.306 339.238 571.181L339.239 571.182L339.277 571.681C340.094 571.618 340.91 571.551 341.727 571.48C342.543 571.41 343.359 571.335 344.174 571.257L344.126 570.76L344.125 570.758C345.752 570.601 347.377 570.43 348.998 570.242L349.057 570.739C350.684 570.551 352.307 570.347 353.928 570.127L353.86 569.631C355.48 569.411 357.097 569.175 358.71 568.924L358.711 568.926L358.788 569.42C360.407 569.168 362.022 568.901 363.633 568.618L363.546 568.125C365.156 567.842 366.762 567.543 368.364 567.229L368.365 567.231L368.462 567.723C370.069 567.408 371.672 567.078 373.271 566.732L373.166 566.244L373.165 566.242C374.763 565.897 376.356 565.538 377.945 565.162L378.062 565.649C379.655 565.273 381.245 564.881 382.829 564.474L382.704 563.989L382.703 563.987C384.286 563.581 385.864 563.16 387.438 562.723L387.438 562.724L387.572 563.205C389.15 562.767 390.723 562.312 392.291 561.844L392.148 561.365L392.147 561.363C393.713 560.895 395.274 560.412 396.829 559.914L396.83 559.916L396.982 560.392C398.542 559.892 400.096 559.378 401.645 558.849L401.482 558.376L401.481 558.375C403.028 557.846 404.569 557.302 406.104 556.744L406.104 556.745L406.275 557.215C407.814 556.655 409.347 556.08 410.874 555.491L410.693 555.025L410.692 555.024C412.217 554.436 413.736 553.833 415.248 553.215L415.249 553.216L415.438 553.679C416.953 553.06 418.463 552.427 419.966 551.778L419.768 551.319L419.767 551.317C421.267 550.67 422.761 550.009 424.248 549.333L424.249 549.334L424.456 549.789C425.946 549.112 427.43 548.42 428.906 547.714L428.69 547.263L428.689 547.261C430.163 546.556 431.63 545.837 433.09 545.104L433.091 545.104L433.315 545.552C434.778 544.817 436.233 544.068 437.682 543.305L437.448 542.862C438.893 542.101 440.33 541.324 441.761 540.534L441.762 540.535L442.004 540.973C443.437 540.182 444.862 539.377 446.279 538.558L446.029 538.125L446.028 538.124C447.443 537.307 448.849 536.476 450.248 535.631L450.508 536.06C451.909 535.214 453.301 534.353 454.686 533.479L454.419 533.057L454.418 533.056C455.799 532.184 457.173 531.3 458.538 530.401L458.813 530.819C460.18 529.919 461.539 529.006 462.889 528.079L462.604 527.666C463.951 526.742 465.288 525.804 466.617 524.853L466.618 524.854L466.909 525.26C468.24 524.307 469.562 523.342 470.875 522.363L470.576 521.962C471.885 520.986 473.185 519.995 474.476 518.993L474.477 518.994L474.783 519.39C476.076 518.386 477.359 517.37 478.633 516.341L478.317 515.951C479.587 514.925 480.848 513.886 482.099 512.834L482.1 512.835L482.422 513.218C483.674 512.165 484.916 511.1 486.149 510.021L485.82 509.645L485.819 509.644C487.048 508.569 488.268 507.482 489.478 506.382L489.479 506.383L489.815 506.753C491.026 505.652 492.226 504.539 493.416 503.413L493.073 503.05L493.072 503.049C494.258 501.927 495.435 500.794 496.601 499.647L496.952 500.005C498.118 498.858 499.274 497.699 500.42 496.528L500.062 496.179C501.204 495.012 502.334 493.832 503.454 492.642L503.455 492.643L503.819 492.985C504.266 492.511 504.71 492.032 505.153 491.554L506.574 492.866L506.913 492.498L510.487 495.796L510.148 496.164L513.723 499.463L514.061 499.095L517.635 502.394L517.296 502.761L520.87 506.06L521.209 505.691L524.782 508.99L524.444 509.357L528.018 512.656L528.356 512.288L531.93 515.587L531.592 515.955L535.165 519.253L535.504 518.886L539.078 522.184L538.739 522.552L542.313 525.85L542.651 525.482L546.226 528.781H546.227L545.887 529.148L549.461 532.447L549.799 532.079ZM522.787 279.942C523.119 281.629 523.428 283.318 523.718 285.011L523.229 285.096C523.518 286.785 523.787 288.478 524.034 290.173L524.524 290.101C524.773 291.801 525 293.504 525.206 295.209L524.714 295.27C524.92 296.971 525.105 298.675 525.269 300.38L525.763 300.332C525.927 302.042 526.07 303.754 526.192 305.468L525.696 305.503C525.818 307.212 525.918 308.924 525.998 310.636L526.496 310.612C526.576 312.328 526.634 314.045 526.672 315.763L526.174 315.773C526.211 317.487 526.228 319.2 526.223 320.914L526.72 320.915C526.715 322.633 526.688 324.35 526.641 326.067L526.145 326.055C526.097 327.767 526.03 329.481 525.94 331.192L526.436 331.217C526.346 332.932 526.236 334.646 526.104 336.359L525.609 336.322C525.478 338.03 525.326 339.738 525.152 341.443L525.646 341.493C525.473 343.201 525.279 344.908 525.062 346.613L524.568 346.551C524.353 348.25 524.117 349.948 523.859 351.644L524.353 351.718C524.095 353.415 523.815 355.11 523.515 356.803L523.025 356.716C522.727 358.402 522.407 360.086 522.066 361.767L522.553 361.865C522.212 363.548 521.849 365.226 521.466 366.902L520.982 366.792C520.601 368.461 520.199 370.127 519.776 371.789L520.257 371.911C519.833 373.575 519.389 375.234 518.924 376.89L518.446 376.756C517.983 378.404 517.5 380.048 516.995 381.688L517.47 381.833C516.965 383.473 516.441 385.109 515.895 386.739L515.422 386.582C515.286 386.988 515.148 387.394 515.01 387.8L514.59 389.016C514.307 389.825 514.021 390.633 513.729 391.438L514.197 391.608C513.611 393.225 513.005 394.832 512.381 396.431L511.917 396.25C511.293 397.848 510.649 399.436 509.987 401.015L510.445 401.207C509.78 402.792 509.096 404.368 508.394 405.934L507.94 405.731C507.238 407.296 506.517 408.851 505.778 410.396L506.226 410.609C505.483 412.16 504.723 413.7 503.944 415.229L503.502 415.005C502.724 416.533 501.927 418.05 501.112 419.557L501.55 419.792C500.732 421.304 499.898 422.806 499.044 424.296L498.612 424.048C497.76 425.535 496.889 427.012 496.001 428.477L496.428 428.735C495.537 430.205 494.626 431.662 493.7 433.107L493.282 432.84C492.358 434.283 491.415 435.715 490.456 437.135L490.867 437.413C489.905 438.837 488.926 440.248 487.93 441.646L487.525 441.358C486.531 442.754 485.519 444.138 484.491 445.509L484.888 445.807C483.857 447.181 482.81 448.543 481.746 449.891L481.355 449.583C480.294 450.928 479.216 452.261 478.121 453.579L478.505 453.897C477.408 455.219 476.294 456.527 475.164 457.821L474.789 457.494C473.662 458.785 472.52 460.062 471.361 461.325L471.728 461.661C470.567 462.927 469.389 464.179 468.197 465.416L467.84 465.071C466.651 466.305 465.447 467.525 464.228 468.729L464.576 469.083C463.355 470.29 462.118 471.482 460.866 472.659L460.526 472.298C459.278 473.472 458.016 474.63 456.738 475.773L457.07 476.145C455.791 477.29 454.497 478.42 453.188 479.534L452.866 479.155C451.562 480.266 450.244 481.361 448.911 482.44L449.225 482.827C447.89 483.908 446.542 484.972 445.18 486.021L444.877 485.626C443.52 486.671 442.149 487.7 440.765 488.712L441.058 489.113C439.672 490.127 438.273 491.123 436.861 492.104L436.578 491.696C435.172 492.673 433.752 493.632 432.319 494.575L432.593 494.99C431.159 495.934 429.713 496.861 428.254 497.771L427.991 497.349C426.539 498.254 425.073 499.144 423.596 500.016L423.848 500.444C422.37 501.316 420.88 502.171 419.378 503.008L419.136 502.572C418.762 502.781 418.386 502.988 418.011 503.194L416.882 503.811C416.173 504.194 415.462 504.572 414.75 504.947L414.981 505.39C413.551 506.142 412.113 506.877 410.669 507.595L410.447 507.148C409.003 507.866 407.553 508.566 406.096 509.249L406.307 509.7C404.843 510.386 403.373 511.054 401.896 511.704L401.696 511.248C400.221 511.898 398.739 512.531 397.251 513.146L397.441 513.605C395.948 514.222 394.449 514.822 392.943 515.403L392.764 514.938C391.26 515.519 389.751 516.082 388.236 516.627L388.404 517.097C386.884 517.644 385.359 518.173 383.828 518.684L383.671 518.211C382.142 518.721 380.608 519.213 379.069 519.688L379.216 520.165C377.672 520.641 376.123 521.098 374.57 521.538L374.436 521.059C372.885 521.498 371.33 521.918 369.771 522.32L369.895 522.804C368.331 523.208 366.763 523.594 365.191 523.961L365.078 523.475C363.509 523.841 361.937 524.19 360.36 524.521L360.462 525.009C358.881 525.34 357.297 525.652 355.709 525.946L355.619 525.456C354.035 525.75 352.447 526.024 350.857 526.281L350.938 526.774C349.343 527.032 347.746 527.271 346.146 527.491L346.078 526.996C345.445 527.083 344.811 527.165 344.178 527.246L343.894 524.986L343.396 525.049L342.701 519.531L343.198 519.469L342.503 513.95L342.006 514.013L341.311 508.494L341.808 508.432L341.111 502.914L340.615 502.976L339.92 497.457L340.416 497.396L339.721 491.877L339.225 491.938L338.529 486.42L339.025 486.358L338.739 484.094C339.417 484.006 340.095 483.916 340.771 483.82L340.701 483.325L340.7 483.322C342.378 483.084 344.053 482.823 345.723 482.533L345.724 482.534L345.81 483.026C347.484 482.736 349.155 482.42 350.82 482.078L350.72 481.588L350.719 481.586C352.379 481.245 354.034 480.878 355.684 480.485L355.685 480.488L355.8 480.975C357.453 480.582 359.101 480.163 360.743 479.719L360.612 479.236L360.611 479.235C362.247 478.793 363.875 478.324 365.498 477.83L365.499 477.832L365.645 478.311C367.27 477.816 368.888 477.296 370.5 476.751L370.34 476.277L370.339 476.275C371.943 475.733 373.541 475.166 375.13 474.573L375.131 474.574L375.306 475.043C376.897 474.449 378.481 473.831 380.057 473.188L379.867 472.725L379.866 472.722C381.433 472.081 382.992 471.416 384.542 470.726L384.544 470.729L384.747 471.186C386.298 470.495 387.841 469.78 389.374 469.04L389.156 468.589C390.681 467.853 392.194 467.09 393.699 466.306L393.701 466.309L393.932 466.752C394.308 466.556 394.685 466.358 395.061 466.158L396.185 465.556C396.931 465.152 397.674 464.743 398.413 464.328L398.168 463.892L398.166 463.89C399.642 463.061 401.104 462.213 402.55 461.342L402.551 461.343L402.809 461.771C404.263 460.895 405.703 459.997 407.126 459.079L406.854 458.659L406.853 458.657C408.275 457.74 409.681 456.802 411.071 455.843L411.073 455.845L411.356 456.256C412.753 455.292 414.135 454.309 415.499 453.305L415.202 452.902L415.201 452.9C416.564 451.897 417.909 450.873 419.237 449.83L419.239 449.833L419.548 450.226C420.883 449.178 422.201 448.111 423.501 447.024L423.18 446.641L423.178 446.639C424.475 445.554 425.756 444.451 427.019 443.328L427.02 443.329L427.353 443.703C428.62 442.576 429.87 441.429 431.101 440.264L430.757 439.9L430.755 439.898C431.983 438.736 433.193 437.555 434.384 436.356L434.386 436.358L434.74 436.711C435.936 435.508 437.112 434.287 438.27 433.048L437.904 432.707L437.903 432.706C439.057 431.471 440.19 430.216 441.306 428.946L441.309 428.948L441.684 429.278C442.802 428.004 443.901 426.712 444.98 425.404L444.595 425.087L444.593 425.085C445.66 423.792 446.709 422.484 447.736 421.158L447.762 421.125L448.157 421.432C449.195 420.091 450.212 418.734 451.209 417.362L450.805 417.068L450.803 417.066C451.796 415.699 452.768 414.316 453.719 412.918L453.721 412.92L454.135 413.201C455.088 411.8 456.02 410.383 456.931 408.952L456.509 408.684L456.508 408.683C457.414 407.257 458.298 405.816 459.161 404.362L459.164 404.364L459.594 404.619C460.459 403.162 461.302 401.691 462.123 400.206L461.686 399.964L461.683 399.962C462.5 398.484 463.297 396.993 464.069 395.487L464.07 395.488L464.515 395.717C465.288 394.21 466.039 392.689 466.767 391.156L466.315 390.942L466.312 390.94C467.037 389.415 467.738 387.877 468.417 386.326L468.42 386.328L468.878 386.528C469.557 384.977 470.212 383.412 470.845 381.837L470.381 381.651L470.38 381.65C471.009 380.084 471.613 378.505 472.194 376.916L472.197 376.917L472.666 377.089C472.812 376.691 472.956 376.293 473.099 375.894L473.522 374.693C473.802 373.892 474.075 373.089 474.342 372.284L473.867 372.127L473.864 372.126C474.397 370.519 474.905 368.907 475.387 367.289L475.389 367.29L475.867 367.433C476.352 365.805 476.811 364.173 477.244 362.535L476.761 362.407L476.757 362.406C477.189 360.77 477.597 359.13 477.979 357.484L477.981 357.485L478.468 357.599C478.851 355.945 479.209 354.288 479.54 352.627L479.049 352.529C479.38 350.87 479.682 349.206 479.961 347.54L479.965 347.541L480.458 347.623C480.738 345.95 480.992 344.273 481.221 342.595L480.726 342.527L480.724 342.526C480.952 340.85 481.154 339.172 481.33 337.491L481.332 337.492L481.829 337.545C482.006 335.858 482.157 334.169 482.281 332.479L481.783 332.441L481.779 332.44C481.904 330.754 482.003 329.066 482.075 327.378L482.078 327.379L482.577 327.4C482.65 325.706 482.696 324.01 482.717 322.315L482.217 322.31C482.237 320.619 482.229 318.928 482.197 317.238H482.2L482.7 317.229C482.668 315.534 482.61 313.839 482.526 312.146L482.026 312.171H482.023C481.94 310.482 481.833 308.795 481.697 307.109L482.196 307.07C482.06 305.381 481.898 303.692 481.71 302.007L481.213 302.062H481.21C481.023 300.383 480.809 298.706 480.569 297.032H480.572L481.067 296.961C480.828 295.283 480.562 293.609 480.271 291.938L479.778 292.023H479.777C479.487 290.359 479.169 288.699 478.827 287.042H478.829L479.319 286.94C478.977 285.281 478.608 283.626 478.214 281.976L477.728 282.092H477.725C477.332 280.449 476.917 278.81 476.474 277.178H476.475L476.957 277.047C476.513 275.412 476.043 273.783 475.548 272.16L475.07 272.306H475.067C474.575 270.69 474.057 269.081 473.514 267.479H473.517L473.99 267.318C473.446 265.714 472.877 264.116 472.282 262.525L471.814 262.701H471.813C471.223 261.12 470.605 259.546 469.964 257.979H469.967L470.43 257.79C470.109 257.006 469.781 256.223 469.447 255.442C469.114 254.662 468.775 253.884 468.43 253.11L467.974 253.314L467.971 253.315C467.282 251.769 466.572 250.235 465.838 248.715H465.839L466.289 248.498C465.551 246.969 464.789 245.454 464.006 243.952L463.562 244.183L463.56 244.184C462.777 242.683 461.972 241.197 461.146 239.725L461.148 239.724L461.584 239.479C460.753 237.999 459.901 236.534 459.026 235.083L458.598 235.341H458.597C457.723 233.892 456.827 232.458 455.911 231.039L455.914 231.038L456.334 230.768C455.414 229.342 454.472 227.932 453.51 226.537L453.098 226.821L453.096 226.822C452.135 225.43 451.155 224.053 450.153 222.692H450.154L450.557 222.396C449.551 221.03 448.524 219.68 447.478 218.347L447.084 218.656L447.082 218.657C446.038 217.327 444.973 216.013 443.889 214.717L443.892 214.716L444.275 214.396C443.187 213.095 442.079 211.81 440.952 210.544L440.579 210.877H440.578C439.454 209.614 438.31 208.369 437.147 207.142L437.149 207.141L437.513 206.797C436.347 205.566 435.162 204.353 433.959 203.158L433.607 203.513L433.604 203.515C432.405 202.323 431.189 201.149 429.953 199.995L430.296 199.63C429.057 198.473 427.8 197.334 426.525 196.216L426.195 196.592L426.193 196.593C424.923 195.478 423.636 194.382 422.331 193.307L422.333 193.306L422.651 192.92C421.344 191.842 420.019 190.783 418.678 189.744L418.371 190.14H418.37C417.034 189.106 415.681 188.092 414.312 187.099L414.314 187.098L414.608 186.693C413.237 185.698 411.849 184.723 410.446 183.769L410.165 184.183L410.163 184.185C408.766 183.235 407.355 182.303 405.927 181.396H405.928L406.196 180.974C404.767 180.065 403.323 179.177 401.863 178.312L401.607 178.741L401.605 178.743C400.153 177.882 398.686 177.042 397.205 176.224L397.207 176.222L397.449 175.784C395.967 174.965 394.47 174.167 392.959 173.393L392.729 173.838C391.227 173.068 389.711 172.321 388.182 171.596L388.184 171.594L388.398 171.143C387.783 170.85 387.165 170.562 386.545 170.277L387.492 168.201L387.037 167.994L387.036 167.993L389.344 162.933L389.799 163.141L392.105 158.079L391.65 157.872L393.957 152.811L394.412 153.019L396.719 147.957L396.264 147.75L398.569 142.688L398.57 142.689L399.025 142.896L401.332 137.836L400.877 137.628L403.184 132.567L403.639 132.774L404.583 130.7C405.211 130.988 405.838 131.279 406.463 131.573L406.676 131.121C408.232 131.854 409.776 132.605 411.311 133.374L411.088 133.82C412.621 134.589 414.143 135.375 415.654 136.18L415.888 135.74C417.406 136.548 418.912 137.375 420.406 138.219L420.162 138.652C421.656 139.496 423.138 140.356 424.608 141.234L424.862 140.808C426.338 141.689 427.802 142.588 429.253 143.505L428.988 143.926C430.438 144.841 431.876 145.774 433.301 146.724L433.576 146.309C435.007 147.262 436.425 148.231 437.83 149.218L437.544 149.627C438.947 150.613 440.336 151.616 441.713 152.635L442.01 152.233C443.391 153.256 444.759 154.295 446.113 155.351L445.808 155.744C447.16 156.798 448.499 157.867 449.824 158.953L450.139 158.568C451.468 159.657 452.783 160.763 454.084 161.884L453.761 162.261C455.059 163.38 456.344 164.514 457.614 165.664L457.946 165.295C459.22 166.448 460.481 167.616 461.726 168.8L461.383 169.161C462.625 170.342 463.851 171.539 465.063 172.75L465.416 172.396C466.631 173.611 467.832 174.84 469.017 176.084H469.018L468.655 176.429C469.837 177.669 471.004 178.925 472.155 180.194L472.523 179.859C473.677 181.132 474.815 182.42 475.938 183.721L475.562 184.045C476.681 185.342 477.785 186.654 478.872 187.979L479.255 187.664C480.344 188.992 481.418 190.333 482.476 191.688L482.084 191.993C483.138 193.344 484.175 194.708 485.196 196.085L485.596 195.788C486.618 197.168 487.626 198.559 488.615 199.965L488.207 200.253C489.193 201.654 490.162 203.067 491.114 204.493L491.529 204.216C492.482 205.643 493.417 207.084 494.336 208.536L493.916 208.804C494.831 210.251 495.73 211.711 496.61 213.183L497.036 212.927C497.918 214.4 498.782 215.884 499.628 217.381L499.196 217.626C500.039 219.116 500.864 220.619 501.671 222.132L502.109 221.897C502.917 223.412 503.707 224.937 504.479 226.474L504.035 226.697C504.803 228.227 505.553 229.768 506.285 231.319L506.735 231.106C507.467 232.658 508.183 234.22 508.878 235.793V235.794L508.421 235.996C508.767 236.78 509.109 237.566 509.446 238.354C509.783 239.143 510.115 239.934 510.442 240.726L510.903 240.535C511.559 242.124 512.193 243.721 512.809 245.322L512.345 245.502C512.96 247.103 513.555 248.711 514.13 250.323L514.598 250.155C515.175 251.775 515.73 253.401 516.266 255.031L515.795 255.187C516.33 256.816 516.845 258.451 517.34 260.09L517.814 259.945C518.311 261.591 518.787 263.242 519.242 264.897L518.764 265.03C519.218 266.683 519.651 268.341 520.064 270.003L520.547 269.883C520.961 271.551 521.358 273.223 521.73 274.898L521.243 275.008C521.616 276.681 521.967 278.359 522.298 280.039L522.787 279.942ZM155.406 348.548C155.696 350.213 156.015 351.874 156.355 353.529L156.354 353.53L155.863 353.631C156.205 355.292 156.573 356.947 156.966 358.597L157.452 358.48L157.454 358.479C157.846 360.124 158.262 361.762 158.704 363.394V363.395L158.221 363.525C158.664 365.162 159.133 366.792 159.627 368.414L160.105 368.269L160.107 368.268C160.6 369.884 161.117 371.494 161.659 373.096L161.657 373.097L161.184 373.257C161.727 374.862 162.295 376.46 162.888 378.05L163.356 377.875V377.874C163.947 379.457 164.563 381.031 165.203 382.597L165.202 382.598L164.739 382.787C165.38 384.356 166.045 385.916 166.735 387.466L167.192 387.263L167.194 387.262C167.881 388.805 168.59 390.339 169.325 391.862V391.863L168.875 392.081C169.611 393.607 170.371 395.122 171.155 396.627L171.599 396.396L171.6 396.395C172.38 397.892 173.185 399.379 174.013 400.854L174.011 400.856L173.575 401.102C174.404 402.579 175.256 404.045 176.132 405.499L176.56 405.241V405.24C177.43 406.687 178.326 408.12 179.243 409.543L179.242 409.545L178.821 409.815C179.281 410.528 179.746 411.237 180.217 411.943C180.688 412.649 181.164 413.351 181.645 414.049L182.057 413.765L182.058 413.763C183.018 415.156 183.998 416.534 184.998 417.894V417.895L184.596 418.191C185.602 419.559 186.628 420.91 187.673 422.242L188.066 421.934L188.068 421.932C189.113 423.263 190.176 424.576 191.259 425.872L191.257 425.875L190.874 426.195C191.962 427.498 193.069 428.782 194.194 430.048L194.567 429.715V429.714C195.692 430.978 196.836 432.223 197.997 433.45L197.995 433.453L197.632 433.797C198.798 435.03 199.983 436.243 201.185 437.438L201.537 437.083L201.538 437.081C202.737 438.273 203.953 439.447 205.188 440.601V440.602L204.847 440.967C206.086 442.125 207.342 443.264 208.615 444.383L208.945 444.007L208.946 444.004C210.217 445.12 211.504 446.216 212.808 447.292L212.807 447.295L212.488 447.681C213.796 448.76 215.121 449.819 216.461 450.857L216.767 450.461C218.103 451.496 219.457 452.509 220.824 453.503L220.823 453.506L220.529 453.91C221.901 454.907 223.288 455.882 224.689 456.836L224.971 456.423L224.972 456.421C226.369 457.372 227.78 458.303 229.206 459.211L228.938 459.633C230.369 460.543 231.812 461.432 233.271 462.298L233.526 461.868L233.527 461.865C234.98 462.728 236.446 463.569 237.926 464.388V464.39L237.684 464.828C239.167 465.648 240.663 466.446 242.172 467.221L242.4 466.775V466.774C243.903 467.546 245.42 468.294 246.947 469.02L246.946 469.022L246.731 469.474C248.262 470.201 249.805 470.905 251.359 471.586L251.56 471.128L251.561 471.125C253.108 471.803 254.666 472.459 256.236 473.09V473.091L256.05 473.555C257.622 474.186 259.204 474.793 260.798 475.377L260.97 474.907V474.905C262.555 475.486 264.152 476.042 265.758 476.575V476.578L265.601 477.053C267.208 477.586 268.826 478.095 270.453 478.58L270.595 478.101C272.212 478.583 273.84 479.038 275.477 479.471V479.474L275.349 479.957C276.007 480.131 276.667 480.3 277.328 480.466L276.778 482.683L277.263 482.802L275.923 488.2L275.438 488.08L274.098 493.479L274.583 493.599L273.242 498.996L272.758 498.876L271.417 504.274L271.902 504.395L270.562 509.792L270.077 509.672L268.736 515.07L269.222 515.19L267.882 520.589L267.396 520.469L266.847 522.68C266.177 522.512 265.508 522.342 264.84 522.167L264.713 522.65C263.049 522.216 261.393 521.759 259.744 521.284L259.882 520.807C258.233 520.332 256.593 519.837 254.96 519.323L254.81 519.797C253.17 519.281 251.538 518.745 249.914 518.189L250.075 517.72C248.453 517.165 246.838 516.59 245.232 515.996L245.06 516.461C243.447 515.865 241.844 515.25 240.249 514.615L240.433 514.153C238.84 513.519 237.255 512.866 235.681 512.193L235.484 512.65C233.904 511.975 232.331 511.283 230.77 510.57L230.978 510.116C229.418 509.404 227.867 508.673 226.327 507.924L226.108 508.373C224.563 507.621 223.028 506.849 221.503 506.06L221.732 505.618C220.21 504.83 218.697 504.024 217.195 503.199L216.956 503.634C215.45 502.807 213.954 501.962 212.47 501.099L212.72 500.669C211.238 499.807 209.768 498.928 208.309 498.03L208.047 498.453C206.584 497.553 205.132 496.636 203.691 495.7L203.963 495.283C202.526 494.35 201.1 493.398 199.687 492.43L199.403 492.841C197.986 491.87 196.581 490.882 195.188 489.876L195.481 489.472C194.092 488.469 192.715 487.448 191.351 486.411L191.049 486.807C189.682 485.767 188.327 484.711 186.985 483.638L187.296 483.25C185.958 482.18 184.633 481.093 183.321 479.99L183.001 480.369C181.687 479.264 180.385 478.143 179.098 477.005L179.428 476.633C178.144 475.498 176.874 474.347 175.618 473.181L175.278 473.545C174.02 472.376 172.775 471.193 171.545 469.992L171.895 469.636C170.669 468.44 169.457 467.227 168.26 466L167.901 466.348C166.703 465.119 165.519 463.874 164.35 462.614L164.716 462.275C163.551 461.02 162.399 459.751 161.264 458.466L160.892 458.794C159.755 457.507 158.634 456.206 157.527 454.89L157.908 454.571C156.806 453.261 155.719 451.935 154.648 450.596L154.26 450.905C153.188 449.565 152.132 448.21 151.092 446.841L151.488 446.541C150.453 445.178 149.433 443.8 148.429 442.409L148.024 442.7C147.02 441.309 146.031 439.904 145.06 438.485L145.472 438.203C144.988 437.496 144.508 436.786 144.032 436.072L143.321 435C143.086 434.642 142.851 434.283 142.618 433.924L142.198 434.196C141.262 432.754 140.346 431.3 139.447 429.838L139.872 429.578C138.974 428.117 138.095 426.646 137.234 425.166L136.804 425.415C135.94 423.929 135.095 422.433 134.27 420.929L134.705 420.689C133.88 419.186 133.075 417.673 132.288 416.152L131.847 416.381C131.057 414.854 130.286 413.318 129.535 411.774L129.982 411.558C129.233 410.016 128.503 408.465 127.792 406.907L127.339 407.113C126.626 405.549 125.931 403.978 125.257 402.399L125.716 402.204C125.043 400.627 124.39 399.043 123.757 397.451L123.292 397.635C122.657 396.038 122.043 394.434 121.448 392.823L121.915 392.65C121.321 391.042 120.746 389.428 120.192 387.807L119.722 387.968C119.166 386.342 118.631 384.709 118.115 383.07L118.59 382.922C118.076 381.287 117.581 379.646 117.107 377.999L116.63 378.136C116.155 376.485 115.701 374.829 115.267 373.167L115.748 373.041C115.315 371.383 114.902 369.72 114.51 368.052L114.023 368.165C113.63 366.493 113.259 364.815 112.907 363.134L113.396 363.033C113.045 361.356 112.715 359.674 112.405 357.988L111.915 358.077C111.605 356.388 111.317 354.695 111.049 352.998L111.539 352.921C111.271 351.229 111.025 349.532 110.799 347.833L110.306 347.898C110.079 346.196 109.874 344.49 109.689 342.781L110.184 342.729C110 341.025 109.836 339.32 109.694 337.611L109.198 337.651C109.056 335.94 108.932 334.227 108.832 332.511L109.331 332.482C109.231 330.773 109.152 329.061 109.095 327.348L108.596 327.363C108.538 325.647 108.503 323.93 108.487 322.211L108.985 322.207C108.97 320.495 108.975 318.781 109.002 317.066L108.505 317.059C108.532 315.342 108.58 313.625 108.649 311.907L109.146 311.928C109.215 310.217 109.305 308.505 109.416 306.794L108.92 306.762C109.031 305.049 109.164 303.336 109.317 301.624L109.813 301.668C109.967 299.963 110.14 298.259 110.336 296.555L109.841 296.497C110.036 294.792 110.252 293.088 110.49 291.385L110.984 291.454C111.103 290.606 111.227 289.757 111.356 288.909C111.486 288.061 111.62 287.214 111.76 286.369L111.267 286.288C111.547 284.591 111.848 282.9 112.169 281.214L112.658 281.308C112.979 279.622 113.321 277.943 113.683 276.27L113.196 276.164C113.559 274.483 113.943 272.809 114.347 271.141L114.829 271.258C115.232 269.591 115.656 267.93 116.1 266.276L115.62 266.146C116.065 264.486 116.53 262.833 117.016 261.187L117.493 261.328C117.978 259.683 118.483 258.045 119.008 256.415L118.533 256.262C118.83 255.341 119.13 254.421 119.439 253.505L120.171 251.376L120.643 251.541C121.208 249.922 121.793 248.311 122.397 246.708L121.93 246.532C122.536 244.924 123.164 243.324 123.81 241.732L124.271 241.921C124.915 240.332 125.579 238.752 126.262 237.181L125.806 236.982C126.491 235.406 127.195 233.839 127.918 232.281L128.369 232.491C129.091 230.936 129.831 229.39 130.591 227.854L130.146 227.634C130.907 226.094 131.686 224.563 132.485 223.043L132.926 223.274C133.723 221.757 134.54 220.25 135.374 218.753L134.937 218.51C135.773 217.009 136.628 215.519 137.501 214.04L137.932 214.294C138.803 212.818 139.691 211.353 140.599 209.898L140.177 209.635C141.086 208.178 142.013 206.732 142.958 205.297L143.374 205.57C144.316 204.14 145.276 202.72 146.254 201.312L145.846 201.028C146.825 199.618 147.822 198.22 148.837 196.833L149.239 197.126C150.251 195.744 151.279 194.373 152.325 193.015L151.931 192.711C152.979 191.35 154.043 190.002 155.125 188.666L155.513 188.98C156.591 187.65 157.687 186.332 158.799 185.026L158.418 184.702C159.531 183.395 160.662 182.102 161.809 180.821L162.181 181.154C163.323 179.878 164.482 178.616 165.657 177.367L165.295 177.025C166.471 175.775 167.664 174.539 168.872 173.316L169.226 173.666C170.429 172.448 171.649 171.244 172.885 170.055L172.54 169.696C173.776 168.506 175.027 167.329 176.295 166.167L176.631 166.534C177.893 165.377 179.171 164.235 180.464 163.107L180.136 162.732C181.429 161.604 182.737 160.49 184.061 159.392L184.38 159.776C184.709 159.503 185.04 159.23 185.371 158.959L186.369 158.146C187.036 157.607 187.705 157.072 188.378 156.541L188.068 156.148C189.418 155.083 190.78 154.036 192.153 153.007L192.453 153.406C193.826 152.377 195.209 151.366 196.604 150.373L196.314 149.968C197.715 148.971 199.128 147.993 200.55 147.032L200.828 147.443C202.249 146.483 203.681 145.541 205.123 144.618L204.854 144.199C206.302 143.272 207.76 142.364 209.229 141.475L209.487 141.9C210.954 141.012 212.43 140.142 213.916 139.291L213.669 138.857C215.16 138.003 216.661 137.167 218.171 136.351L218.408 136.791C219.917 135.976 221.434 135.179 222.961 134.402L222.734 133.957C224.266 133.178 225.807 132.419 227.355 131.678L227.571 132.127C229.118 131.387 230.673 130.667 232.236 129.966L232.032 129.512C233.6 128.809 235.176 128.126 236.76 127.462L236.952 127.92C238.533 127.257 240.122 126.614 241.718 125.991L241.537 125.528C243.138 124.903 244.745 124.297 246.36 123.712L246.529 124.181C248.141 123.597 249.76 123.033 251.385 122.489L251.226 122.015C252.855 121.469 254.491 120.944 256.133 120.439L256.279 120.917C257.917 120.413 259.562 119.93 261.212 119.467L261.076 118.987C262.73 118.523 264.39 118.08 266.055 117.656L266.178 118.139C267.838 117.716 269.505 117.314 271.176 116.933L271.064 116.447C272.739 116.065 274.418 115.704 276.103 115.363L276.201 115.85C277.88 115.51 279.565 115.19 281.253 114.892L281.165 114.401C282.856 114.102 284.551 113.822 286.251 113.564L286.325 114.059C288.019 113.802 289.717 113.566 291.418 113.351L291.355 112.854C293.058 112.639 294.765 112.446 296.475 112.272L296.525 112.768C298.229 112.595 299.937 112.443 301.646 112.312L301.608 111.816C303.32 111.685 305.034 111.575 306.751 111.485L306.776 111.981C308.486 111.893 310.199 111.825 311.913 111.778L311.899 111.281C313.615 111.235 315.333 111.209 317.053 111.204L317.054 111.702C318.766 111.698 320.479 111.714 322.194 111.752L322.204 111.254C323.92 111.292 325.637 111.349 327.354 111.43L327.332 111.929C328.021 111.961 328.711 111.997 329.4 112.036L329.267 114.312L329.766 114.341L329.438 119.893L328.939 119.864L328.611 125.416L329.109 125.444L328.781 130.997L328.283 130.968L327.955 136.521L328.454 136.55L328.126 142.102L327.627 142.072L327.3 147.625L327.798 147.653L327.47 153.205L326.972 153.177L326.837 155.455C326.156 155.417 325.475 155.382 324.795 155.353L324.773 155.853L324.772 155.854C323.082 155.781 321.392 155.731 319.704 155.709H319.705L319.712 155.209C318.014 155.187 316.318 155.192 314.624 155.223L314.634 155.723V155.725C312.942 155.755 311.252 155.811 309.565 155.894V155.892L309.541 155.393C307.846 155.475 306.153 155.584 304.465 155.719L304.505 156.217V156.218C302.818 156.352 301.135 156.514 299.456 156.7V156.698L299.401 156.201C297.715 156.388 296.033 156.601 294.355 156.84L294.426 157.335V157.336C292.751 157.574 291.081 157.837 289.417 158.126L289.331 157.633C287.66 157.923 285.994 158.24 284.334 158.581L284.435 159.071V159.073C282.778 159.414 281.127 159.78 279.483 160.171V160.169L279.368 159.683C277.718 160.075 276.075 160.493 274.438 160.937L274.569 161.419C272.937 161.861 271.313 162.33 269.695 162.822V162.82L269.55 162.342C267.928 162.835 266.313 163.353 264.707 163.896L264.867 164.37V164.372C263.266 164.913 261.672 165.477 260.088 166.067L259.914 165.6C258.326 166.192 256.746 166.808 255.176 167.449L255.365 167.912L255.366 167.914C253.802 168.553 252.246 169.216 250.701 169.903L250.7 169.901L250.497 169.444C248.948 170.133 247.41 170.846 245.882 171.583L246.099 172.033V172.034C244.577 172.768 243.066 173.526 241.566 174.307L241.565 174.306L241.335 173.862C239.832 174.645 238.34 175.451 236.859 176.28L237.104 176.717L237.105 176.719C235.632 177.545 234.169 178.392 232.719 179.265L232.461 178.836C231.01 179.709 229.571 180.606 228.145 181.525L228.415 181.945L228.416 181.946C226.996 182.861 225.59 183.799 224.196 184.76L224.195 184.758L223.912 184.346C222.517 185.307 221.135 186.291 219.768 187.297L220.064 187.699C218.705 188.699 217.359 189.723 216.027 190.768L216.026 190.766L215.718 190.372C215.384 190.634 215.052 190.897 214.72 191.161L213.728 191.958C213.068 192.492 212.412 193.03 211.762 193.573L212.083 193.957L212.084 193.958C210.785 195.043 209.502 196.144 208.24 197.266L207.909 196.893C206.64 198.02 205.39 199.167 204.159 200.33L204.502 200.693L204.504 200.695C203.274 201.858 202.063 203.037 200.872 204.234L200.871 204.233L200.517 203.881C199.32 205.084 198.143 206.305 196.986 207.542L197.352 207.883C196.196 209.119 195.062 210.373 193.946 211.642L193.945 211.641L193.569 211.311C192.449 212.585 191.349 213.875 190.271 215.182L190.656 215.5L190.657 215.501C189.58 216.805 188.522 218.124 187.487 219.459L187.093 219.153C186.053 220.494 185.036 221.851 184.039 223.222L184.443 223.516L184.444 223.517C183.45 224.884 182.477 226.267 181.526 227.663L181.524 227.662L181.111 227.381C180.157 228.783 179.224 230.199 178.313 231.629L178.735 231.897C177.827 233.323 176.943 234.764 176.079 236.217L176.077 236.216L175.647 235.961C174.781 237.418 173.937 238.89 173.116 240.373L173.554 240.615L173.556 240.616C172.737 242.095 171.94 243.585 171.167 245.089L170.723 244.86C169.948 246.368 169.196 247.888 168.468 249.42L168.919 249.635L168.921 249.636C168.195 251.162 167.493 252.7 166.814 254.249L166.812 254.248L166.354 254.047C165.674 255.599 165.017 257.162 164.385 258.736L164.849 258.923H164.85C164.22 260.49 163.614 262.068 163.032 263.656H163.03L162.561 263.484C161.977 265.075 161.418 266.676 160.883 268.286L161.357 268.444H161.359C160.827 270.048 160.318 271.66 159.834 273.281L159.354 273.139C158.87 274.762 158.411 276.394 157.977 278.034L158.46 278.162H158.462C158.029 279.795 157.622 281.435 157.239 283.084H157.236L156.75 282.971C156.367 284.621 156.009 286.278 155.676 287.943L156.166 288.041C155.835 289.696 155.531 291.358 155.25 293.027H155.248L154.755 292.945C154.614 293.781 154.48 294.618 154.353 295.457C154.225 296.296 154.104 297.136 153.989 297.976L154.484 298.043H154.486C154.257 299.72 154.053 301.398 153.876 303.076H153.875L153.378 303.024C153.2 304.713 153.048 306.402 152.923 308.091L153.422 308.128H153.424C153.298 309.816 153.198 311.503 153.125 313.19H153.124L152.624 313.169C152.55 314.864 152.504 316.559 152.482 318.253L152.982 318.26C152.961 319.951 152.968 321.642 152.999 323.33L152.997 323.331L152.497 323.34C152.528 325.036 152.585 326.731 152.668 328.424L153.167 328.399L153.169 328.398C153.252 330.088 153.359 331.775 153.494 333.459L152.996 333.499C153.131 335.19 153.292 336.879 153.479 338.563L153.977 338.508L153.979 338.507C154.165 340.188 154.378 341.865 154.616 343.538L154.614 343.539L154.12 343.609C154.359 345.288 154.623 346.964 154.914 348.634L155.406 348.548ZM419.121 354.235L423.157 355.616V355.617L422.995 356.09L427.029 357.472L427.19 356.998L431.226 358.38L431.064 358.854L432.605 359.381C432.391 359.998 432.174 360.615 431.95 361.228L432.417 361.398C431.851 362.948 431.254 364.483 430.627 366.002L430.166 365.812C429.539 367.33 428.883 368.833 428.196 370.319L428.649 370.527C427.958 372.024 427.236 373.504 426.485 374.968L426.043 374.741C425.294 376.202 424.516 377.646 423.71 379.071L424.144 379.316C423.332 380.751 422.491 382.167 421.623 383.564L421.2 383.302C420.334 384.695 419.441 386.07 418.52 387.426L418.932 387.706C418.006 389.068 417.052 390.41 416.071 391.732L415.672 391.437C414.695 392.754 413.691 394.05 412.661 395.326L413.049 395.639C412.015 396.92 410.954 398.18 409.868 399.418L409.494 399.09C408.413 400.322 407.306 401.532 406.175 402.72L406.535 403.062C405.4 404.254 404.24 405.424 403.056 406.569L402.709 406.211C401.531 407.35 400.329 408.465 399.104 409.556L399.435 409.928C398.206 411.022 396.954 412.091 395.68 413.136L395.363 412.751C394.096 413.789 392.806 414.802 391.495 415.789L391.794 416.187C390.48 417.175 389.146 418.14 387.789 419.076L387.506 418.666C386.158 419.596 384.79 420.5 383.401 421.377L383.667 421.798C382.277 422.675 380.867 423.525 379.438 424.348L379.188 423.916C378.478 424.325 377.764 424.727 377.044 425.121C376.324 425.516 375.601 425.902 374.875 426.281L375.105 426.723C373.643 427.486 372.168 428.218 370.681 428.918L370.469 428.468C368.983 429.167 367.484 429.835 365.976 430.471L366.169 430.93C364.65 431.57 363.119 432.177 361.579 432.753L361.405 432.287C359.868 432.862 358.32 433.404 356.764 433.914L356.919 434.388C355.353 434.901 353.778 435.38 352.194 435.828L352.059 435.35C350.48 435.796 348.893 436.21 347.3 436.591L347.414 437.076C345.812 437.459 344.203 437.807 342.588 438.123L342.493 437.635C340.884 437.95 339.268 438.233 337.647 438.481L337.723 438.974C336.095 439.224 334.463 439.44 332.826 439.623L332.771 439.128C331.142 439.31 329.509 439.459 327.873 439.574L327.907 440.07C326.265 440.186 324.62 440.268 322.974 440.316L322.961 439.818C321.732 439.854 320.503 439.871 319.272 439.869L318.042 439.861L318.036 440.358C316.391 440.339 314.745 440.287 313.1 440.2L313.126 439.701C311.49 439.614 309.855 439.494 308.221 439.34L308.174 439.836C306.536 439.681 304.9 439.494 303.267 439.271L303.334 438.778C301.712 438.558 300.091 438.303 298.475 438.016L298.388 438.506C296.769 438.218 295.154 437.896 293.543 437.54L293.65 437.054C292.851 436.877 292.051 436.692 291.254 436.499L290.06 436.203C289.662 436.103 289.266 435.999 288.87 435.895L288.742 436.377C287.147 435.956 285.564 435.501 283.993 435.017L284.141 434.541C282.572 434.057 281.015 433.541 279.472 432.994L279.305 433.464C277.751 432.913 276.211 432.331 274.685 431.719L274.87 431.257C273.347 430.646 271.838 430.004 270.344 429.332L270.139 429.787C268.636 429.111 267.148 428.404 265.677 427.668L265.9 427.223C264.433 426.489 262.981 425.726 261.547 424.934L261.306 425.37C259.864 424.573 258.44 423.746 257.033 422.892L257.292 422.467C255.89 421.615 254.507 420.735 253.142 419.827L252.864 420.242C251.493 419.33 250.141 418.39 248.809 417.423L249.103 417.02C247.776 416.056 246.469 415.066 245.183 414.049L244.873 414.439C243.582 413.419 242.311 412.372 241.062 411.298L241.388 410.92C240.145 409.852 238.924 408.757 237.725 407.638L237.384 408.001C236.181 406.878 235 405.731 233.843 404.558L234.199 404.207C233.049 403.041 231.921 401.85 230.817 400.635L230.448 400.97C229.342 399.752 228.26 398.512 227.202 397.247L227.586 396.928C226.536 395.672 225.509 394.392 224.509 393.09L224.113 393.394C223.111 392.09 222.135 390.763 221.185 389.415L221.593 389.129C221.121 388.459 220.654 387.785 220.195 387.104C219.677 386.337 219.169 385.565 218.67 384.787L218.249 385.057C217.244 383.49 216.278 381.904 215.35 380.299L215.782 380.05C214.855 378.446 213.966 376.823 213.117 375.184L212.674 375.413C211.818 373.762 211.002 372.093 210.227 370.408L210.681 370.2C209.906 368.519 209.172 366.821 208.478 365.108L208.014 365.295C207.315 363.572 206.658 361.835 206.041 360.085L206.513 359.92C205.898 358.175 205.323 356.416 204.79 354.646L204.311 354.789C203.775 353.011 203.28 351.22 202.827 349.42L203.313 349.298C203.129 348.563 202.951 347.826 202.78 347.087L204.37 346.727L204.26 346.239L204.259 346.238L208.419 345.295L208.529 345.783L212.688 344.839L212.578 344.352L216.736 343.407L216.737 343.408L216.848 343.896L221.007 342.952L220.896 342.465L220.896 342.464L225.056 341.521L225.166 342.009L226.761 341.646C226.889 342.2 227.022 342.753 227.16 343.304L227.645 343.183V343.182C228.001 344.6 228.39 346.01 228.812 347.41H228.812L228.334 347.554C228.758 348.96 229.213 350.358 229.702 351.745L230.174 351.579V351.578C230.66 352.956 231.178 354.324 231.728 355.68V355.681L231.265 355.868C231.816 357.229 232.4 358.579 233.016 359.915L233.469 359.706C234.079 361.032 234.722 362.346 235.396 363.646V363.646L234.952 363.876C235.627 365.179 236.332 366.469 237.069 367.743L237.502 367.493C238.232 368.756 238.994 370.005 239.785 371.237V371.238L239.364 371.508C239.761 372.126 240.166 372.74 240.577 373.35C241.046 374.045 241.524 374.733 242.01 375.414L242.417 375.124L242.418 375.123C243.388 376.482 244.392 377.813 245.429 379.113V379.114L245.037 379.426C246.083 380.738 247.162 382.02 248.272 383.271L248.646 382.939V382.938C249.754 384.187 250.893 385.404 252.062 386.589V386.59L251.705 386.941C252.883 388.135 254.091 389.297 255.328 390.425L255.665 390.056L255.666 390.054C256.898 391.177 258.158 392.268 259.446 393.324V393.325L259.129 393.712C260.425 394.774 261.749 395.802 263.099 396.794L263.395 396.391V396.39C264.737 397.377 266.106 398.327 267.499 399.242V399.244L267.225 399.662C268.625 400.581 270.05 401.464 271.497 402.309L271.749 401.877V401.876C273.188 402.715 274.649 403.517 276.132 404.28V404.282L275.902 404.727C277.39 405.493 278.9 406.22 280.43 406.908L280.635 406.452V406.451C282.153 407.134 283.691 407.777 285.247 408.38V408.381L285.065 408.848C286.625 409.452 288.203 410.016 289.798 410.539L289.954 410.064V410.062C291.534 410.581 293.131 411.058 294.743 411.494V411.496L294.613 411.979C295.421 412.198 296.233 412.406 297.048 412.604C297.863 412.801 298.679 412.988 299.497 413.163L299.603 412.674V412.673C301.236 413.023 302.874 413.33 304.517 413.593V413.594L304.438 414.088C306.095 414.353 307.756 414.573 309.419 414.75L309.472 414.253V414.251C311.131 414.427 312.793 414.559 314.455 414.647V414.648L314.429 415.148C316.103 415.237 317.778 415.281 319.452 415.281V414.779C321.12 414.779 322.786 414.737 324.449 414.649L324.476 415.149C326.149 415.061 327.82 414.928 329.485 414.752L329.433 414.255L329.432 414.253C331.089 414.077 332.742 413.858 334.388 413.596L334.389 413.598L334.468 414.091C336.122 413.827 337.769 413.519 339.407 413.168L339.303 412.68L339.302 412.679C340.93 412.33 342.55 411.937 344.16 411.502L344.161 411.504L344.292 411.986C345.908 411.55 347.514 411.07 349.107 410.548L348.951 410.072C350.533 409.554 352.102 408.991 353.658 408.389L353.659 408.391L353.84 408.857C355.399 408.253 356.946 407.607 358.477 406.919L358.271 406.463L358.271 406.462C359.787 405.78 361.289 405.057 362.774 404.293L362.775 404.294L363.004 404.738C363.376 404.547 363.747 404.354 364.117 404.157L365.224 403.56C365.959 403.156 366.688 402.744 367.411 402.322L367.159 401.891L367.158 401.89C368.601 401.048 370.018 400.17 371.409 399.258L371.41 399.259L371.685 399.677C373.088 398.756 374.464 397.801 375.812 396.811L375.516 396.407L375.515 396.405C376.859 395.417 378.177 394.396 379.464 393.342L379.465 393.343L379.781 393.729C381.079 392.667 382.347 391.571 383.584 390.443L383.247 390.073L383.245 390.071C384.478 388.948 385.68 387.794 386.85 386.608L386.851 386.609L387.207 386.961C388.384 385.768 389.53 384.544 390.642 383.292L390.268 382.96L390.266 382.958C391.372 381.712 392.445 380.437 393.484 379.134L393.486 379.136L393.877 379.447C394.921 378.138 395.932 376.801 396.906 375.438L396.499 375.146L396.498 375.146C397.466 373.79 398.399 372.409 399.296 371.003L399.297 371.004L399.719 371.272C400.619 369.861 401.482 368.425 402.308 366.966L401.873 366.719L401.872 366.718C402.691 365.269 403.473 363.797 404.217 362.304L404.218 362.305L404.666 362.527C405.411 361.03 406.119 359.511 406.786 357.972L406.327 357.772L406.326 357.771C406.988 356.246 407.61 354.7 408.192 353.135L408.194 353.136L408.663 353.31C408.897 352.681 409.123 352.049 409.344 351.414L410.891 351.945L411.052 351.472L415.087 352.854L414.926 353.326L418.96 354.708L419.121 354.235ZM626.236 227.165C626.713 228.737 627.177 230.313 627.63 231.893L627.15 232.03C627.602 233.607 628.041 235.187 628.469 236.771L628.95 236.641C629.378 238.227 629.795 239.816 630.198 241.409L629.715 241.532C630.118 243.122 630.508 244.714 630.887 246.311L631.371 246.195C631.75 247.794 632.116 249.395 632.471 251L631.984 251.107C632.338 252.709 632.68 254.313 633.009 255.921L633.497 255.821C633.826 257.43 634.144 259.042 634.448 260.656L633.959 260.749C634.263 262.36 634.555 263.974 634.834 265.591L635.324 265.506C635.604 267.125 635.873 268.746 636.128 270.37L635.635 270.447C635.889 272.067 636.131 273.689 636.36 275.313L636.854 275.244C637.084 276.87 637.301 278.498 637.506 280.129L637.011 280.191C637.215 281.818 637.408 283.448 637.587 285.079L638.082 285.024C638.261 286.656 638.429 288.291 638.583 289.927H638.584L638.087 289.974C638.241 291.606 638.382 293.24 638.511 294.876L639.008 294.837C639.137 296.474 639.254 298.114 639.358 299.755H639.359L638.86 299.786C638.964 301.422 639.055 303.059 639.134 304.698L639.632 304.674C639.71 306.314 639.776 307.956 639.829 309.599L639.331 309.615C639.384 311.254 639.425 312.894 639.453 314.536L639.953 314.527V314.526C639.981 316.168 639.995 317.81 639.998 319.454L639.499 319.455C639.5 320.275 639.499 321.096 639.494 321.917C639.489 322.74 639.481 323.563 639.47 324.385L639.969 324.391C639.946 326.039 639.911 327.685 639.863 329.33L639.364 329.316C639.316 330.962 639.256 332.606 639.183 334.248L639.68 334.27C639.606 335.916 639.521 337.561 639.422 339.204L638.925 339.175C638.826 340.817 638.715 342.458 638.591 344.097L639.088 344.134C638.964 345.777 638.826 347.419 638.677 349.059L638.181 349.015C638.031 350.653 637.87 352.29 637.695 353.924L638.19 353.977C638.016 355.615 637.828 357.252 637.628 358.886L637.134 358.826C636.934 360.459 636.721 362.09 636.496 363.719L636.989 363.786C636.764 365.419 636.526 367.048 636.275 368.676L635.783 368.601C635.533 370.227 635.27 371.85 634.995 373.471L635.487 373.554C635.212 375.178 634.923 376.8 634.622 378.419L634.132 378.329C633.832 379.947 633.519 381.561 633.194 383.173L633.684 383.271C633.358 384.886 633.019 386.498 632.669 388.106L632.182 388.001C631.832 389.608 631.468 391.214 631.094 392.814L631.579 392.927C631.204 394.531 630.817 396.132 630.417 397.729L629.933 397.609C629.533 399.205 629.121 400.797 628.697 402.386L629.179 402.514C628.754 404.106 628.316 405.694 627.867 407.278L627.389 407.143C626.94 408.725 626.479 410.304 626.006 411.879L626.483 412.022C626.01 413.6 625.524 415.174 625.026 416.744L624.551 416.594C624.054 418.162 623.544 419.726 623.022 421.285L623.495 421.442C622.973 423.005 622.439 424.563 621.893 426.117L621.423 425.952C620.877 427.504 620.32 429.051 619.751 430.594L620.219 430.766C619.648 432.311 619.066 433.852 618.472 435.389L618.007 435.21C617.771 435.821 617.53 436.43 617.29 437.04L615.496 436.332L615.312 436.797H615.312L610.789 435.008L610.974 434.543L606.451 432.755L606.268 433.22H606.267L601.744 431.431L601.929 430.966L597.406 429.178L597.222 429.643L592.7 427.854L592.884 427.389L588.361 425.601L588.176 426.065L583.654 424.276L583.839 423.812L579.316 422.023L579.131 422.488L574.609 420.699L574.794 420.235L570.271 418.446L570.086 418.911L565.564 417.122L565.748 416.658L561.226 414.869L561.041 415.334L556.52 413.545L556.703 413.081L554.904 412.369C555.16 411.718 555.416 411.067 555.667 410.414L555.2 410.235L555.198 410.234C555.818 408.62 556.421 406.999 557.007 405.372L557.008 405.373L557.479 405.543C558.066 403.913 558.636 402.277 559.189 400.635L558.716 400.476L558.714 400.475C559.266 398.836 559.802 397.192 560.32 395.542L560.321 395.543L560.799 395.693C561.318 394.041 561.821 392.382 562.307 390.719L561.826 390.579L561.825 390.578C562.31 388.919 562.776 387.254 563.227 385.584L563.229 385.585L563.711 385.715C564.162 384.043 564.596 382.366 565.013 380.684L564.526 380.562C564.942 378.885 565.34 377.202 565.721 375.515L565.723 375.516L566.21 375.626C566.592 373.937 566.956 372.243 567.303 370.545L566.813 370.444L566.812 370.443C567.158 368.75 567.487 367.052 567.799 365.351L567.8 365.352L568.291 365.442C568.603 363.739 568.898 362.031 569.175 360.32L568.681 360.24L568.68 360.239C568.956 358.533 569.215 356.824 569.456 355.11L569.457 355.111L569.952 355.182C570.193 353.467 570.417 351.749 570.623 350.027L570.127 349.968L570.125 349.967C570.331 348.251 570.519 346.532 570.689 344.811L570.69 344.812L571.188 344.86C571.359 343.138 571.511 341.412 571.646 339.684L571.148 339.645L571.146 339.644C571.281 337.921 571.399 336.196 571.498 334.469L571.499 334.47L571.998 334.498C572.097 332.77 572.179 331.039 572.243 329.307L571.743 329.288L571.742 329.287C571.806 327.561 571.852 325.832 571.88 324.102L571.882 324.103L572.381 324.111L572.41 321.513L572.413 319.056L571.913 319.058H571.912C571.906 317.422 571.885 315.788 571.847 314.156L572.347 314.146C572.309 312.508 572.255 310.872 572.186 309.238L571.685 309.26C571.615 307.626 571.53 305.995 571.429 304.365H571.43L571.929 304.334C571.827 302.699 571.709 301.066 571.576 299.436L571.077 299.477C570.944 297.847 570.795 296.22 570.63 294.596H570.631L571.129 294.545C570.964 292.915 570.783 291.288 570.586 289.664L570.09 289.725H570.089C569.892 288.102 569.68 286.482 569.452 284.865H569.453L569.948 284.795C569.72 283.173 569.475 281.555 569.216 279.939L568.723 280.02H568.721C568.461 278.406 568.188 276.795 567.897 275.188L568.39 275.1C568.098 273.488 567.791 271.88 567.469 270.275L566.978 270.374C566.656 268.772 566.318 267.173 565.965 265.578H565.967L566.455 265.471C566.101 263.872 565.731 262.277 565.347 260.687L564.86 260.804C564.476 259.215 564.077 257.631 563.662 256.052H563.663L564.146 255.925C563.731 254.341 563.3 252.762 562.854 251.188L562.372 251.323C561.927 249.751 561.465 248.184 560.989 246.621H560.991L561.469 246.476C560.992 244.91 560.5 243.348 559.993 241.792L559.518 241.947H559.517C559.01 240.394 558.489 238.845 557.952 237.302H557.954L558.426 237.138C557.888 235.592 557.336 234.051 556.769 232.516L556.3 232.688H556.299C555.733 231.156 555.152 229.629 554.556 228.108H554.557L555.022 227.926C554.425 226.402 553.813 224.883 553.187 223.371L552.725 223.562C552.099 222.053 551.457 220.55 550.803 219.054H550.805L551.263 218.853C550.607 217.353 549.936 215.86 549.251 214.373L548.796 214.582C548.112 213.099 547.415 211.622 546.702 210.151H546.703L547.153 209.934C546.44 208.461 545.711 206.994 544.969 205.535L544.523 205.762H544.521C543.781 204.306 543.027 202.857 542.258 201.415L542.699 201.18C541.929 199.736 541.144 198.299 540.346 196.87L539.908 197.114C539.112 195.689 538.301 194.27 537.477 192.859H537.478L537.909 192.606C537.083 191.194 536.243 189.789 535.39 188.392L534.962 188.652C534.11 187.259 533.245 185.873 532.365 184.495H532.367L532.788 184.226C531.908 182.847 531.015 181.475 530.107 180.112L529.69 180.39H529.689C528.785 179.031 527.867 177.68 526.935 176.337H526.936L527.346 176.052C526.413 174.708 525.466 173.372 524.506 172.045L524.102 172.338H524.1C523.143 171.015 522.172 169.701 521.188 168.396L521.589 168.095C520.604 166.788 519.607 165.49 518.596 164.201L518.202 164.51H518.2C517.193 163.225 516.172 161.95 515.138 160.684H515.14L515.526 160.367C514.492 159.101 513.445 157.843 512.385 156.595L512.003 156.917C510.946 155.673 509.876 154.439 508.793 153.214H508.795L509.169 152.883C508.627 152.27 508.082 151.658 507.534 151.05L505.88 149.232L505.512 149.57H505.511C504.405 148.366 503.288 147.174 502.161 145.994H502.162L502.523 145.648C501.392 144.464 500.25 143.291 499.098 142.131L498.742 142.483H498.741C497.589 141.324 496.427 140.176 495.255 139.04H495.256L495.604 138.681C494.427 137.541 493.239 136.413 492.042 135.298L491.701 135.663C490.505 134.549 489.298 133.448 488.082 132.358L488.416 131.986C487.196 130.893 485.966 129.813 484.727 128.745L484.4 129.124H484.399C483.161 128.057 481.913 127.003 480.655 125.962H480.656L480.976 125.577C479.714 124.533 478.442 123.501 477.162 122.482L476.852 122.874H476.851C475.571 121.856 474.283 120.851 472.985 119.859L473.29 119.463C471.989 118.468 470.679 117.487 469.359 116.519L469.063 116.921C467.746 115.954 466.419 115.001 465.084 114.061L465.085 114.06L465.373 113.651C464.034 112.708 462.687 111.778 461.331 110.862L461.05 111.276C459.696 110.362 458.333 109.461 456.963 108.573L456.964 108.572L457.235 108.152C455.861 107.262 454.478 106.386 453.088 105.523L452.823 105.948C451.435 105.087 450.038 104.238 448.634 103.404H448.635L448.891 102.975C447.483 102.139 446.067 101.317 444.644 100.509L444.396 100.943H444.396C442.975 100.137 441.546 99.3433 440.11 98.5645H440.111L440.35 98.125C438.911 97.3446 437.464 96.5784 436.011 95.8262L435.781 96.2705H435.78C434.329 95.5196 432.871 94.7831 431.405 94.0605H431.406L431.628 93.6113C430.16 92.8875 428.684 92.1786 427.202 91.4834L426.989 91.9355C425.51 91.2418 424.024 90.5634 422.532 89.8984L422.533 89.8975L422.736 89.4404C421.241 88.7743 419.74 88.1225 418.231 87.4854L418.037 87.9463H418.036C416.531 87.3106 415.02 86.6895 413.503 86.083H413.504L413.689 85.6182C412.17 85.0108 410.644 84.4188 409.112 83.8408L408.935 84.3086C407.407 83.732 405.873 83.1691 404.333 82.6221L404.501 82.1514C402.959 81.6036 401.412 81.0707 399.858 80.5527L399.7 81.0264L399.699 81.0273C398.15 80.5105 396.595 80.0084 395.034 79.5215H395.035L395.185 79.0439C393.622 78.5565 392.055 78.0843 390.482 77.627L390.343 78.1074H390.342C388.774 77.6515 387.201 77.2109 385.623 76.7852L385.624 76.7842L385.754 76.3018C384.174 75.8756 382.59 75.4641 381.001 75.0684L380.88 75.5537H380.879C379.295 75.1592 377.706 74.7801 376.112 74.416H376.113L376.225 73.9287C374.63 73.5643 373.03 73.2145 371.427 72.8809L371.325 73.3711L371.324 73.3721C369.725 73.0394 368.123 72.7208 366.516 72.4189L366.609 71.9277C365.002 71.6257 363.389 71.3394 361.773 71.0684L361.691 71.5615H361.69C360.08 71.2914 358.466 71.036 356.849 70.7969H356.85L356.923 70.3027C355.305 70.0636 353.683 69.8398 352.059 69.6318L351.995 70.127C350.376 69.9197 348.754 69.7288 347.128 69.5527H347.129L347.183 69.0557C346.369 68.9675 345.554 68.883 344.738 68.8027C343.923 68.7224 343.107 68.6465 342.292 68.5742L342.248 69.0723H342.247C340.619 68.9279 338.991 68.798 337.363 68.6855L337.397 68.1875C335.763 68.0746 334.129 67.9775 332.496 67.8965L332.472 68.3965H332.471C330.838 68.3155 329.205 68.2503 327.573 68.2012H327.574L327.589 67.7012C325.951 67.6519 324.314 67.619 322.679 67.6016L322.674 68.1006C321.039 68.0832 319.405 68.0833 317.772 68.0977V68.0967L317.769 67.5967C316.131 67.6111 314.494 67.6412 312.858 67.6875L312.872 68.1875C311.238 68.2337 309.606 68.2961 307.976 68.374L307.951 67.874C306.315 67.9522 304.681 68.0464 303.049 68.1562L303.083 68.6553V68.6562C301.452 68.766 299.823 68.8909 298.196 69.0322L298.153 68.5342C296.522 68.6759 294.892 68.8335 293.265 69.0068L293.318 69.5039C291.693 69.677 290.07 69.8658 288.45 70.0703L288.387 69.5742C286.762 69.7793 285.141 69.9999 283.521 70.2363L283.593 70.7305C281.976 70.9666 280.362 71.2199 278.751 71.4873V71.4863L278.669 70.9932C277.054 71.2612 275.442 71.5454 273.833 71.8447L273.925 72.3359C272.318 72.6348 270.715 72.9493 269.115 73.2793L269.015 72.79C267.411 73.1207 265.811 73.4664 264.215 73.8281L264.325 74.3154V74.3164C262.732 74.6774 261.142 75.0534 259.557 75.4453L259.437 74.96C257.847 75.3527 256.262 75.761 254.681 76.1846L254.811 76.668C253.232 77.0907 251.658 77.5291 250.089 77.9824V77.9814L249.95 77.501C248.378 77.9552 246.81 78.4254 245.246 78.9102L245.393 79.3867C243.832 79.8704 242.277 80.3707 240.727 80.8848V80.8838L240.569 80.4092C239.016 80.9241 237.467 81.4548 235.924 82L236.09 82.4717C234.55 83.0156 233.015 83.5744 231.485 84.1484L231.31 83.6807C229.777 84.2556 228.25 84.8453 226.729 85.4502L226.914 85.915C225.396 86.5185 223.884 87.1363 222.377 87.7695L222.184 87.3086C220.675 87.9426 219.173 88.5922 217.676 89.2559L217.878 89.7129V89.7139C216.385 90.3758 214.898 91.0518 213.417 91.7432L213.206 91.29C211.723 91.9823 210.247 92.6895 208.776 93.4111L208.996 93.8594C207.53 94.5789 206.071 95.3139 204.618 96.0625V96.0615L204.39 95.6172C202.935 96.3665 201.487 97.13 200.046 97.9082L200.284 98.3486C198.848 99.1245 197.418 99.9142 195.995 100.719L195.749 100.284C194.325 101.089 192.908 101.909 191.498 102.743L191.753 103.173C190.348 104.004 188.949 104.849 187.559 105.709L187.296 105.284C185.904 106.144 184.52 107.018 183.144 107.906L183.414 108.326L183.415 108.327C182.043 109.212 180.679 110.111 179.322 111.024V111.023L179.043 110.609C177.686 111.523 176.338 112.45 174.997 113.391L175.283 113.799C173.947 114.736 172.62 115.689 171.301 116.654L171.006 116.25C170.48 116.635 169.955 117.023 169.432 117.412L168.274 115.863L167.873 116.162L164.964 112.265H164.965L165.366 111.966L162.457 108.068L162.057 108.368H162.056L159.146 104.471H159.147L159.548 104.171L156.639 100.274L156.237 100.573L153.328 96.6758L153.73 96.377L150.821 92.4795L150.42 92.7783L147.511 88.8809H147.512L147.912 88.582L145.004 84.6846L144.603 84.9834H144.602L141.693 81.0869H141.694L142.095 80.7871L139.186 76.8896L138.784 77.1895L135.875 73.292L136.277 72.9932L133.368 69.0957L132.966 69.3945L130.058 65.4971L130.459 65.1982L129.305 63.6514C129.83 63.2609 130.355 62.8714 130.882 62.4844L130.586 62.082C131.911 61.1091 133.241 60.1464 134.579 59.1953L134.869 59.6025C136.207 58.6511 137.552 57.7107 138.903 56.7812L138.62 56.3701C139.974 55.4383 141.334 54.5171 142.701 53.6074L142.979 54.0234C144.344 53.1143 145.717 52.2161 147.095 51.3291L146.824 50.9092C148.207 50.0193 149.596 49.1409 150.99 48.2734L151.255 48.6973C152.648 47.8305 154.048 46.9742 155.453 46.1299L155.195 45.7021C156.604 44.8557 158.018 44.0201 159.438 43.1963L159.689 43.6289C161.109 42.8053 162.535 41.9932 163.966 41.1924L163.722 40.7568C165.156 39.9541 166.596 39.1627 168.041 38.3828L168.278 38.8223C169.722 38.0431 171.172 37.2748 172.627 36.5186L172.396 36.0752C173.854 35.317 175.318 34.571 176.787 33.8359L177.011 34.2822C178.478 33.5479 179.951 32.8254 181.429 32.1143L181.212 31.6641C182.692 30.9515 184.178 30.2498 185.668 29.5605L185.878 30.0146C187.367 29.3258 188.862 28.6488 190.361 27.9834L190.158 27.5264C191.66 26.8597 193.167 26.2047 194.678 25.5615L194.874 26.0215C196.384 25.379 197.897 24.7477 199.416 24.1289L199.228 23.666C200.749 23.0458 202.276 22.4382 203.807 21.8418L203.988 22.3066C205.517 21.711 207.05 21.1275 208.587 20.5557L208.412 20.0879C209.952 19.5149 211.496 18.9523 213.044 18.4033L213.212 18.875C214.758 18.3267 216.308 17.7909 217.862 17.2666L217.703 16.793C219.26 16.2678 220.82 15.755 222.385 15.2539L222.537 15.7295C224.099 15.2291 225.666 14.7409 227.235 14.2646L227.09 13.7861C228.662 13.3091 230.238 12.8453 231.817 12.3926L231.955 12.8721C233.532 12.42 235.113 11.9795 236.696 11.5518L236.565 11.0703C238.151 10.642 239.74 10.2242 241.333 9.82031L241.457 10.3057C243.047 9.9025 244.639 9.5115 246.235 9.13281L246.12 8.64648C247.718 8.26723 249.32 7.90056 250.924 7.5459L251.032 8.0332C252.634 7.67911 254.238 7.33728 255.846 7.00781L255.745 6.51855L255.744 6.51758C257.354 6.18764 258.966 5.8716 260.581 5.56641L260.674 6.05664C262.285 5.75211 263.899 5.46045 265.516 5.18066L265.431 4.68848C267.049 4.40834 268.67 4.13907 270.293 3.88379L270.371 4.37891C271.991 4.12415 273.614 3.88125 275.238 3.65137L275.168 3.15723C276.794 2.92709 278.422 2.70907 280.053 2.50391L280.115 3C281.742 2.79524 283.372 2.60263 285.003 2.42285L284.948 1.92578C286.581 1.74587 288.215 1.57867 289.851 1.42383L289.898 1.9209C291.531 1.76639 293.165 1.62455 294.801 1.49512L294.761 0.998047C296.398 0.868469 298.037 0.750893 299.678 0.646484L299.71 1.14453C301.346 1.04041 302.983 0.949087 304.622 0.870117L304.599 0.371094C306.239 0.292064 307.88 0.225678 309.522 0.171875L309.539 0.670898C311.178 0.61721 312.819 0.576301 314.46 0.547852L314.451 0.0488281C316.093 0.0203723 317.735 0.00414367 319.379 0.000976562L319.38 0.500977C321.019 0.497818 322.66 0.507178 324.301 0.529297L324.306 0.0302734C325.949 0.05241 327.592 0.0853021 329.236 0.132812V0.133789L329.222 0.632812C330.86 0.680147 332.499 0.740838 334.138 0.813477L334.159 0.314453C335.799 0.387134 337.44 0.472259 339.081 0.570312L339.053 1.06934C340.689 1.16714 342.327 1.27723 343.964 1.40039L344 0.902344C345.637 1.02545 347.273 1.16109 348.91 1.30957L348.866 1.80762C349.683 1.88174 350.5 1.9586 351.317 2.03906C352.135 2.11954 352.952 2.20333 353.768 2.29004L353.819 1.79395C355.453 1.96759 357.085 2.1521 358.714 2.35059L358.655 2.84766C360.285 3.04625 361.912 3.25711 363.536 3.48047L363.604 2.98633C365.232 3.21027 366.858 3.44567 368.48 3.69434L368.406 4.18848C370.028 4.43701 371.647 4.69756 373.263 4.9707L373.346 4.47754C374.967 4.75162 376.585 5.0392 378.2 5.33789L378.11 5.8291C379.724 6.12751 381.334 6.43785 382.941 6.76074L383.039 6.27148C384.65 6.59517 386.258 6.9302 387.862 7.27832L387.758 7.76758C389.362 8.11565 390.963 8.47525 392.56 8.84766L392.672 8.36133C394.273 8.73458 395.87 9.12005 397.463 9.51758L397.343 10.002C398.935 10.3991 400.523 10.8091 402.107 11.2305L402.235 10.7471C403.824 11.1695 405.408 11.6052 406.989 12.0518L406.854 12.5312C408.433 12.9773 410.008 13.4362 411.579 13.9062L411.722 13.4268C413.296 13.8978 414.866 14.3811 416.432 14.876L416.282 15.3525C417.847 15.8471 419.407 16.3538 420.963 16.8721L421.12 16.3984C422.679 16.9178 424.234 17.4482 425.784 17.9912L425.62 18.4629C427.168 19.0052 428.712 19.5591 430.251 20.125L430.423 19.6562C431.965 20.2233 433.502 20.803 435.035 21.3936L434.856 21.8594C436.387 22.4492 437.913 23.051 439.435 23.6641L439.621 23.2002C441.145 23.8145 442.664 24.4407 444.178 25.0781L443.984 25.5381C445.496 26.1748 447.003 26.8236 448.505 27.4834L448.705 27.0264C450.209 27.6872 451.709 28.3591 453.202 29.043L452.995 29.4971C454.487 30.1799 455.973 30.8744 457.453 31.5801L457.667 31.1289C459.15 31.8358 460.628 32.5535 462.101 33.2832L461.879 33.7314C463.349 34.4599 464.813 35.1992 466.271 35.9502L466.499 35.5059C467.96 36.2581 469.415 37.0203 470.864 37.7949V37.7959L470.629 38.2373C472.075 39.0106 473.516 39.7953 474.95 40.5908L475.192 40.1533C476.629 40.95 478.059 41.7583 479.483 42.5771L479.235 43.0098C480.657 43.8272 482.073 44.6557 483.482 45.4951L483.737 45.0654C485.149 45.9059 486.554 46.7577 487.952 47.6201L487.691 48.0459C489.087 48.9065 490.477 49.7779 491.859 50.6602L492.128 50.2393C493.513 51.1229 494.891 52.0176 496.263 52.9229L495.988 53.3398C497.357 54.243 498.719 55.1565 500.074 56.0811L500.354 55.6689C501.711 56.5947 503.061 57.5315 504.404 58.4785L504.117 58.8857C505.457 59.8308 506.791 60.7868 508.117 61.7529L508.411 61.3496C509.739 62.3166 511.059 63.2943 512.372 64.2822L512.072 64.6807C513.383 65.6663 514.686 66.6625 515.981 67.6689L516.287 67.2754C517.584 68.2829 518.875 69.3 520.157 70.3281H520.158L519.846 70.7178C521.125 71.7432 522.396 72.7794 523.66 73.8252L523.978 73.4395C525.243 74.4863 526.5 75.5442 527.75 76.6113L527.428 76.9912C528.675 78.0558 529.915 79.1302 531.146 80.2148L531.476 79.8398C532.708 80.9249 533.932 82.02 535.148 83.125L534.813 83.4951C536.027 84.5974 537.233 85.7091 538.431 86.8311L538.771 86.4668C539.97 87.5895 541.16 88.7219 542.343 89.8643L541.996 90.2246C543.175 91.3634 544.345 92.5118 545.508 93.6699L545.86 93.3164C547.023 94.4751 548.178 95.6434 549.324 96.8213L548.967 97.1699C550.11 98.3451 551.246 99.5294 552.373 100.724L552.735 100.381C553.862 101.575 554.98 102.778 556.09 103.99L555.722 104.328C556.275 104.933 556.827 105.54 557.377 106.15C557.926 106.76 558.473 107.373 559.018 107.986L559.391 107.654C560.481 108.884 561.562 110.121 562.632 111.365L562.254 111.691C563.324 112.936 564.385 114.189 565.435 115.448L565.816 115.128C566.869 116.391 567.912 117.661 568.943 118.938L568.556 119.253C569.587 120.529 570.607 121.813 571.617 123.104L572.01 122.795C573.023 124.09 574.025 125.392 575.018 126.701L574.621 127.003C575.612 128.311 576.593 129.626 577.563 130.947L577.965 130.651C578.937 131.976 579.899 133.307 580.85 134.646L580.444 134.936C581.395 136.273 582.335 137.619 583.264 138.97L583.675 138.687C584.606 140.041 585.527 141.401 586.437 142.769L586.021 143.045C586.929 144.411 587.827 145.784 588.714 147.163L589.134 146.893C590.023 148.275 590.901 149.664 591.768 151.059L591.345 151.322C592.211 152.716 593.066 154.116 593.91 155.521L594.338 155.265C595.184 156.673 596.019 158.088 596.843 159.509L596.411 159.759C597.234 161.178 598.046 162.605 598.847 164.036L599.281 163.792C600.083 165.226 600.874 166.666 601.653 168.111L601.215 168.349C601.993 169.793 602.762 171.242 603.518 172.697L603.959 172.467C604.717 173.925 605.463 175.389 606.198 176.858L605.752 177.082C606.486 178.549 607.209 180.022 607.92 181.5L608.369 181.283C609.081 182.764 609.782 184.25 610.471 185.741H610.472L610.019 185.95C610.707 187.439 611.384 188.934 612.049 190.434L612.504 190.23C613.17 191.732 613.825 193.239 614.468 194.751L614.01 194.947C614.652 196.457 615.282 197.971 615.9 199.49L616.362 199.301C616.982 200.822 617.589 202.349 618.186 203.88L617.722 204.062C618.317 205.59 618.9 207.123 619.472 208.66L619.938 208.486C620.511 210.026 621.072 211.57 621.621 213.119H621.622L621.151 213.286C621.699 214.832 622.235 216.382 622.759 217.937L623.231 217.777C623.756 219.334 624.269 220.894 624.77 222.459L624.295 222.611C624.795 224.173 625.283 225.74 625.759 227.31L626.236 227.165ZM424.363 261.282C425.169 262.719 425.944 264.172 426.689 265.64L426.245 265.865C426.988 267.327 427.7 268.805 428.382 270.296L428.835 270.088C429.52 271.585 430.174 273.097 430.797 274.621L430.336 274.81C430.956 276.327 431.544 277.858 432.102 279.4L432.57 279.23C433.13 280.779 433.658 282.338 434.154 283.909H434.155L433.679 284.06C434.172 285.622 434.633 287.196 435.062 288.779L435.542 288.648C435.972 290.237 436.372 291.834 436.737 293.441H436.738L436.251 293.553C436.614 295.15 436.945 296.756 437.243 298.37L437.732 298.279C438.031 299.896 438.297 301.521 438.529 303.153L438.036 303.225C438.267 304.845 438.464 306.474 438.629 308.107L439.124 308.057C439.289 309.692 439.42 311.334 439.518 312.98L439.021 313.011C439.059 313.662 439.091 314.315 439.119 314.968L437.491 315.031L437.51 315.53L433.249 315.695L433.229 315.196L428.968 315.361L428.987 315.86L424.726 316.025L424.706 315.526L420.444 315.691L420.464 316.19L416.201 316.355L416.184 315.856L414.548 315.919C414.518 315.248 414.485 314.578 414.441 313.909L413.942 313.941H413.94C413.832 312.275 413.68 310.615 413.484 308.964H413.485L413.981 308.904C413.784 307.238 413.543 305.58 413.259 303.932L412.767 304.017H412.765C412.481 302.372 412.155 300.737 411.786 299.114H411.787L412.274 299.004C411.903 297.369 411.488 295.745 411.031 294.135L410.55 294.271H410.548C410.093 292.666 409.597 291.075 409.059 289.499H409.06L409.533 289.338C408.991 287.752 408.407 286.181 407.783 284.627L407.319 284.812H407.317C406.696 283.266 406.034 281.736 405.332 280.225H405.334L405.787 280.015C405.082 278.496 404.336 276.994 403.551 275.514L403.109 275.748H403.108C402.328 274.277 401.508 272.826 400.65 271.396H400.651L401.08 271.138C400.219 269.703 399.319 268.289 398.382 266.898L397.967 267.178C397.036 265.798 396.068 264.441 395.063 263.108H395.064L395.464 262.807C394.457 261.471 393.413 260.161 392.333 258.876L391.95 259.197H391.949C390.879 257.924 389.773 256.677 388.633 255.457L388.635 255.456L389 255.115C388.429 254.504 387.848 253.899 387.26 253.302L386.371 252.412C386.073 252.118 385.773 251.825 385.472 251.535L385.125 251.896H385.124C383.921 250.737 382.69 249.613 381.433 248.524H381.434L381.761 248.146C380.492 247.048 379.196 245.984 377.876 244.958L377.569 245.354L377.568 245.354C376.251 244.33 374.908 243.341 373.542 242.391H373.543L373.828 241.98C372.452 241.023 371.051 240.102 369.629 239.22L369.365 239.645L369.364 239.646C367.947 238.766 366.508 237.925 365.048 237.123H365.049L365.289 236.685C363.82 235.878 362.331 235.11 360.822 234.382L360.605 234.833L360.604 234.834C359.103 234.11 357.583 233.424 356.046 232.78H356.047L356.24 232.318C354.696 231.671 353.133 231.065 351.556 230.5L351.387 230.971H351.386C349.818 230.409 348.234 229.89 346.637 229.411L346.638 229.41L346.781 228.931C345.178 228.45 343.56 228.012 341.931 227.616L341.812 228.102H341.812C340.194 227.709 338.564 227.36 336.924 227.052L336.925 227.051L337.018 226.56C335.374 226.251 333.719 225.986 332.056 225.764L331.989 226.259L331.988 226.26C330.34 226.04 328.682 225.863 327.018 225.729L327.019 225.729L327.058 225.23C326.224 225.164 325.388 225.107 324.551 225.062L323.294 225.004C322.876 224.987 322.457 224.973 322.039 224.962L322.025 225.462H322.024C320.355 225.417 318.689 225.416 317.026 225.459V225.458L317.014 224.958C315.336 225.001 313.662 225.089 311.995 225.221L312.034 225.719V225.72C310.37 225.851 308.713 226.025 307.062 226.243L306.997 225.747C305.334 225.967 303.68 226.231 302.034 226.537L302.125 227.028V227.029C300.485 227.335 298.855 227.683 297.236 228.074L297.119 227.588C295.49 227.981 293.872 228.418 292.268 228.896L292.41 229.376C290.813 229.852 289.229 230.371 287.659 230.931V230.93L287.491 230.459C285.914 231.022 284.35 231.626 282.804 232.271L282.996 232.733C281.459 233.375 279.939 234.058 278.436 234.781V234.78L278.219 234.329C276.71 235.054 275.219 235.82 273.748 236.626L273.988 237.064C272.528 237.864 271.088 238.703 269.669 239.581L269.406 239.155C267.984 240.035 266.582 240.954 265.203 241.911L265.488 242.321C264.122 243.27 262.777 244.257 261.457 245.28V245.279L261.151 244.884C260.821 245.14 260.492 245.399 260.164 245.66L259.186 246.45C258.536 246.981 257.895 247.521 257.262 248.067L257.588 248.446C256.324 249.538 255.092 250.661 253.893 251.812L253.892 251.812L253.546 251.451C252.335 252.614 251.157 253.806 250.014 255.026L250.379 255.368C249.238 256.586 248.131 257.832 247.059 259.104L246.676 258.782C245.595 260.065 244.55 261.375 243.541 262.71L243.939 263.012L243.94 263.013C242.935 264.343 241.964 265.698 241.031 267.078L240.617 266.798C239.679 268.186 238.778 269.599 237.914 271.034L238.342 271.292H238.343C237.484 272.72 236.662 274.17 235.88 275.642H235.879L235.438 275.407C234.651 276.886 233.903 278.385 233.195 279.904L233.648 280.116C232.945 281.626 232.282 283.155 231.658 284.701H231.657L231.193 284.515C230.568 286.067 229.983 287.637 229.438 289.224L229.911 289.386C229.371 290.96 228.872 292.55 228.415 294.155L227.934 294.018C227.475 295.626 227.059 297.25 226.685 298.886L227.172 298.997H227.173C226.802 300.618 226.473 302.253 226.188 303.898H226.187L225.694 303.812C225.58 304.473 225.473 305.136 225.372 305.8L223.754 305.562L223.682 306.058H223.681L219.461 305.438H219.462L219.534 304.943L215.314 304.325L215.242 304.819H215.241L211.021 304.2H211.022L211.095 303.706L206.875 303.087L206.803 303.581L202.583 302.962L202.655 302.468L201.042 302.23C201.14 301.584 201.242 300.939 201.35 300.296L200.858 300.213C201.131 298.586 201.436 296.968 201.774 295.359L202.263 295.462C202.6 293.855 202.971 292.258 203.373 290.671L202.889 290.548C203.294 288.95 203.733 287.362 204.202 285.786L204.68 285.929C205.148 284.356 205.648 282.794 206.18 281.245L205.707 281.082C206.242 279.523 206.809 277.977 207.406 276.444L207.871 276.626C208.467 275.097 209.094 273.581 209.751 272.08L209.293 271.88C209.954 270.371 210.646 268.876 211.367 267.396L211.815 267.616C212.534 266.142 213.283 264.683 214.062 263.24L213.622 263.003C214.404 261.554 215.215 260.121 216.056 258.705L216.485 258.96C217.322 257.55 218.189 256.158 219.083 254.783L218.665 254.511C219.328 253.492 220.005 252.483 220.699 251.484L221.442 250.427L221.85 250.717C222.799 249.381 223.777 248.064 224.781 246.767L224.387 246.461C225.375 245.185 226.389 243.927 227.43 242.689L227.49 242.618L227.872 242.94C228.927 241.688 230.01 240.456 231.118 239.245L230.75 238.908C231.86 237.695 232.997 236.503 234.159 235.334L234.513 235.686C235.667 234.524 236.846 233.385 238.051 232.269L237.712 231.903C238.918 230.786 240.148 229.691 241.402 228.62L241.726 229C242.037 228.734 242.351 228.47 242.665 228.207L243.613 227.423C244.248 226.903 244.889 226.389 245.533 225.884L245.225 225.491C246.522 224.473 247.839 223.484 249.173 222.523L249.464 222.928C250.796 221.968 252.147 221.036 253.514 220.135L253.238 219.718C254.614 218.81 256.007 217.932 257.416 217.084L257.674 217.512C259.08 216.665 260.502 215.847 261.938 215.061L261.698 214.622C263.144 213.831 264.604 213.07 266.078 212.34L266.3 212.787C267.77 212.059 269.254 211.362 270.751 210.695L270.548 210.238C272.053 209.568 273.571 208.93 275.101 208.323L275.285 208.787C276.809 208.182 278.345 207.609 279.893 207.067L279.728 206.596C281.282 206.052 282.847 205.539 284.422 205.06L284.567 205.537C286.135 205.059 287.714 204.614 289.301 204.201L289.176 203.718C290.768 203.303 292.37 202.921 293.979 202.572L294.086 203.06C295.687 202.712 297.297 202.398 298.913 202.116L298.827 201.625C300.448 201.343 302.076 201.092 303.71 200.876L303.775 201.372C305.399 201.157 307.029 200.976 308.663 200.828L308.618 200.331C310.256 200.183 311.898 200.067 313.545 199.986L313.57 200.485C315.205 200.405 316.844 200.357 318.486 200.344L318.482 199.846C320.126 199.832 321.772 199.852 323.421 199.906L323.405 200.405C324.224 200.432 325.043 200.467 325.862 200.511C326.682 200.555 327.5 200.607 328.317 200.668L328.354 200.17C329.999 200.292 331.638 200.448 333.271 200.637L333.215 201.132C334.846 201.32 336.471 201.542 338.088 201.797L338.165 201.304C339.794 201.56 341.415 201.85 343.027 202.172L342.931 202.661C344.54 202.983 346.141 203.337 347.732 203.724L347.85 203.237C349.451 203.626 351.043 204.05 352.625 204.504L352.488 204.982C354.065 205.435 355.632 205.919 357.188 206.436L357.344 205.961C358.907 206.48 360.459 207.032 361.999 207.614L361.822 208.08C363.356 208.66 364.878 209.272 366.387 209.914L366.582 209.455C368.097 210.1 369.599 210.777 371.086 211.483L370.872 211.934C372.353 212.637 373.819 213.372 375.271 214.136L375.502 213.694C376.958 214.461 378.4 215.256 379.825 216.083V216.084L379.574 216.517C380.992 217.339 382.393 218.19 383.777 219.071L384.044 218.65C385.432 219.534 386.804 220.445 388.157 221.387V221.388L387.872 221.798C389.217 222.733 390.543 223.697 391.851 224.689L392.151 224.292C393.461 225.286 394.753 226.307 396.024 227.356L395.708 227.742C396.97 228.784 398.213 229.854 399.436 230.95L399.768 230.579C400.991 231.677 402.195 232.8 403.377 233.951L403.029 234.31C403.616 234.881 404.197 235.459 404.773 236.044C405.35 236.629 405.92 237.218 406.482 237.813L406.844 237.471C407.977 238.669 409.083 239.889 410.163 241.129L409.788 241.456C410.867 242.694 411.918 243.954 412.941 245.231L413.33 244.918C414.361 246.205 415.363 247.512 416.338 248.837L415.937 249.132C416.909 250.454 417.854 251.795 418.77 253.153L419.183 252.873C420.104 254.24 420.995 255.624 421.858 257.025L421.435 257.287C422.295 258.684 423.126 260.098 423.928 261.527L424.363 261.282Z" stroke="#023E06" stroke-dasharray="5 5"/>
</svg>
